<svg width="62" height="49" viewBox="0 0 62 49" fill="none" xmlns="http://www.w3.org/2000/svg">
<path d="M4.45207 42.2861L4.10963 42.1149C3.93842 42.0293 3.7672 42.0293 3.68159 42.1149L3.33916 42.3717C2.91112 42.6285 2.6543 43.1422 2.6543 43.6558V45.0256C2.6543 45.2824 2.82551 45.4536 3.08234 45.4536H4.7945C5.05132 45.4536 5.22254 45.2824 5.22254 45.0256V43.6558C5.13693 43.0566 4.88011 42.5429 4.45207 42.2861ZM4.28085 44.5975H3.42477V43.6558C3.42477 43.399 3.51038 43.2278 3.7672 43.0566L3.85281 42.971L3.93842 43.0566C4.10963 43.2278 4.28085 43.399 4.28085 43.6558V44.5975Z" fill="#BFBFBF"/>
<path d="M61.2097 48.0216H60.7817V34.3243H61.2097C61.4665 34.3243 61.6378 34.1531 61.6378 33.8962V31.328C61.6378 31.0712 61.4665 30.9 61.2097 30.9H60.7817V29.6158C60.7817 29.359 60.6105 29.1878 60.3536 29.1878H57.9566C57.7854 27.7325 56.7581 26.3627 55.1316 25.5923L51.108 23.6233V23.024C51.108 22.7672 50.9368 22.596 50.6799 22.596C50.4231 22.596 50.2519 22.8528 50.2519 23.024V23.6233L46.3139 25.5067C44.6874 26.2771 43.6601 27.6469 43.4889 29.1022H42.0335V26.534H42.4616C42.7184 26.534 42.8896 26.3627 42.8896 26.1059V23.5377C42.8896 23.2809 42.7184 23.1096 42.4616 23.1096H42.0335V17.9732H42.4616C42.7184 17.9732 42.8896 17.8019 42.8896 17.5451V14.9769C42.8896 14.7201 42.7184 14.5488 42.4616 14.5488H41.1775V11.1245H41.6055C41.8623 11.1245 42.0335 10.9533 42.0335 10.6965V8.98432C42.0335 8.7275 41.8623 8.55628 41.6055 8.55628H41.1775V6.84412H41.6055C41.8623 6.84412 42.0335 6.67291 42.0335 6.41608V4.70392C42.0335 4.4471 41.8623 4.27588 41.6055 4.27588H41.1775V3.4198C41.1775 2.64933 40.6638 1.96447 39.8933 1.79325V1.2796C39.8933 1.02278 39.7221 0.851562 39.4653 0.851562C39.2085 0.851562 39.0373 1.02278 39.0373 1.2796V1.79325C38.2668 1.96447 37.7531 2.64933 37.7531 3.4198V4.27588H37.3251C37.0683 4.27588 36.8971 4.4471 36.8971 4.70392V6.41608C36.8971 6.67291 37.0683 6.84412 37.3251 6.84412H37.7531V8.55628H37.3251C37.0683 8.55628 36.8971 8.7275 36.8971 8.98432V10.6965C36.8971 10.9533 37.0683 11.1245 37.3251 11.1245H37.7531V14.5488H36.469C36.2122 14.5488 36.041 14.7201 36.041 14.9769V17.5451C36.041 17.8019 36.2122 17.9732 36.469 17.9732H36.8971V23.1096H36.3834C35.9554 22.3392 35.3561 21.5687 34.5 21.0551L31.2469 19.0861V18.3156C31.2469 18.0588 31.0757 17.8876 30.8189 17.8876C30.5621 17.8876 30.3908 18.0588 30.3908 18.3156V19.0861L27.1377 21.2263C26.3673 21.7399 25.6824 22.4248 25.34 23.1953H24.8263V18.0588H25.2544C25.5112 18.0588 25.6824 17.8876 25.6824 17.6307V15.0625C25.6824 14.8057 25.5112 14.6345 25.2544 14.6345H23.9702V11.2101H24.3983C24.6551 11.2101 24.8263 11.0389 24.8263 10.7821V9.06993C24.8263 8.81311 24.6551 8.64189 24.3983 8.64189H23.9702V6.92973H24.3983C24.6551 6.92973 24.8263 6.75851 24.8263 6.50169V4.78953C24.8263 4.53271 24.6551 4.36149 24.3983 4.36149H23.9702V3.50541C23.9702 2.73494 23.4566 2.05008 22.6861 1.87886V1.36521C22.6861 1.10839 22.5149 0.937171 22.2581 0.937171C22.0013 0.937171 21.83 1.10839 21.83 1.36521V1.87886C21.0596 2.05008 20.5459 2.73494 20.5459 3.50541V4.36149H20.1179C19.8611 4.36149 19.6898 4.53271 19.6898 4.78953V6.50169C19.6898 6.75851 19.8611 6.92973 20.1179 6.92973H20.5459V8.64189H20.1179C19.8611 8.64189 19.6898 8.81311 19.6898 9.06993V10.7821C19.6898 11.0389 19.8611 11.2101 20.1179 11.2101H20.5459V14.6345H19.2618C19.005 14.6345 18.8338 14.8057 18.8338 15.0625V17.6307C18.8338 17.8876 19.005 18.0588 19.2618 18.0588H19.6898V23.1953H19.2618C19.005 23.1953 18.8338 23.3665 18.8338 23.6233V26.1915C18.8338 26.4484 19.005 26.6196 19.2618 26.6196H19.6898V29.1878H17.7209C17.5496 27.7325 16.5223 26.3627 14.8958 25.5923L10.8722 23.6233V23.024C10.8722 22.7672 10.701 22.596 10.4442 22.596C10.1874 22.596 10.0161 22.8528 10.0161 23.024V23.6233L5.99256 25.5923C4.36601 26.3627 3.33871 27.7325 3.1675 29.1878H1.28412C1.0273 29.1878 0.856079 29.359 0.856079 29.6158V30.9H0.42804C0.171216 30.9 0 31.0712 0 31.328V33.8962C0 34.1531 0.171216 34.3243 0.42804 34.3243H0.856079V48.0216H0.42804C0.171216 48.0216 0 48.1928 0 48.4496C0 48.7064 0.171216 48.8776 0.42804 48.8776H61.2097C61.4665 48.8776 61.6378 48.7064 61.6378 48.4496C61.6378 48.1928 61.4665 48.0216 61.2097 48.0216ZM60.7817 33.4682H41.9479V31.756H60.7817V33.4682ZM43.6601 30.0439H45.3722V30.9H43.6601V30.0439ZM55.6452 30.9H53.933V30.0439H55.6452V30.9ZM53.077 30.9H51.3648V30.0439H53.077V30.9ZM50.5087 30.9H48.7966V30.0439H50.5087V30.9ZM47.9405 30.9H46.2283V30.0439H47.9405V30.9ZM59.9256 30.0439V30.9H59.0695V30.0439H59.9256ZM58.2134 30.9H56.5013V30.0439H58.2134V30.9ZM46.6564 26.3627L50.6799 24.3938L54.7035 26.3627C56.0732 27.0476 56.8437 28.0749 57.0149 29.1878H44.2593C44.4306 27.9893 45.2866 26.962 46.6564 26.3627ZM42.804 30.0439V30.9H41.9479V30.0439H42.804ZM38.5236 3.50541C38.5236 3.07737 38.866 2.64933 39.3797 2.64933C39.8077 2.64933 40.2358 3.07737 40.2358 3.50541V4.36149H38.5236V3.50541ZM37.6675 5.21757H41.0918V6.07365H37.6675V5.21757ZM38.5236 6.92973H40.2358V8.64189H38.5236V6.92973ZM37.6675 9.49797H41.0918V10.3541H37.6675V9.49797ZM38.5236 11.2101H40.2358V14.6345H38.5236V11.2101ZM36.8114 15.4905H41.9479V17.2027H36.8114V15.4905ZM37.6675 18.0588H41.0918V23.1953H37.6675V18.0588ZM36.8114 24.0513H41.9479V25.7635H36.8114V24.0513ZM24.9975 26.6196H26.5385V27.4757H24.8263V26.6196H24.9975ZM36.8114 30.0439H24.8263V28.3317H36.8114V30.0439ZM32.531 27.4757V26.6196H34.2432V27.4757H32.531ZM31.675 27.4757H29.9628V26.6196H31.675V27.4757ZM29.1067 27.4757H27.3946V26.6196H29.1067V27.4757ZM24.8263 41.8578C24.8263 39.1183 26.1961 36.5501 28.5931 35.0092L30.8189 33.5538L33.0447 35.0092C35.4417 36.4645 36.8114 39.0327 36.8114 41.8578V48.0216H24.8263V41.8578ZM33.4727 34.2387L30.9901 32.6977C30.8189 32.6121 30.6477 32.6121 30.5621 32.6977L28.0794 34.3243C26.6241 35.266 25.5112 36.5501 24.8263 38.091V30.9H36.8114V38.0054C36.1266 36.4645 35.0137 35.1804 33.4727 34.2387ZM36.8114 27.4757H35.0993V26.6196H36.8114V27.4757ZM27.6514 21.9111L30.8189 19.9421L33.9864 21.9111C35.1849 22.6816 35.9554 23.8801 35.9554 25.3355V25.7635H25.6824V25.3355C25.6824 23.9657 26.3673 22.6816 27.6514 21.9111ZM21.402 3.50541C21.402 3.07737 21.7444 2.64933 22.2581 2.64933C22.6861 2.64933 23.1142 3.07737 23.1142 3.50541V4.36149H21.402V3.50541ZM20.5459 5.21757H23.9702V6.07365H20.5459V5.21757ZM21.402 6.92973H23.1142V8.64189H21.402V6.92973ZM20.5459 9.49797H23.9702V10.3541H20.5459V9.49797ZM21.402 11.2101H23.1142V14.6345H21.402V11.2101ZM19.6898 15.4905H24.8263V17.2027H19.6898V15.4905ZM20.5459 18.0588H23.9702V23.1953H20.5459V18.0588ZM19.6898 24.0513H24.8263V25.7635H19.6898V24.0513ZM19.6898 30.0439V30.9H18.8338V30.0439H19.6898ZM17.9777 30.9H16.2655V30.0439H17.9777V30.9ZM3.42432 30.0439H5.13648V30.9H3.42432V30.0439ZM5.99256 30.0439H7.70472V30.9H5.99256V30.0439ZM8.5608 30.0439H10.273V30.9H8.5608V30.0439ZM11.129 30.0439H12.8412V30.9H11.129V30.0439ZM13.6973 30.0439H15.4094V30.9H13.6973V30.0439ZM6.4206 26.3627L10.4442 24.3938L14.4678 26.3627C15.8375 27.0476 16.6936 28.0749 16.8648 29.1878H4.02358C4.19479 28.0749 5.05087 26.962 6.4206 26.3627ZM1.71216 30.0439H2.56824V30.9H1.71216V30.0439ZM0.856079 31.756H19.6898V33.4682H0.856079V31.756ZM1.71216 34.3243H19.6898V48.0216H15.4094V42.3714C15.4094 40.2312 14.3821 38.3479 12.5844 37.235L10.9578 36.2077C10.7866 36.1221 10.6154 36.1221 10.5298 36.2077L8.90323 37.235C7.10547 38.3479 6.07817 40.3169 6.07817 42.3714V48.0216H1.79777V34.3243H1.71216ZM14.5534 48.0216H6.84864V42.457C6.84864 40.6593 7.79033 39.0327 9.24566 38.0054L10.701 37.0637L12.0707 37.9198C13.6117 38.8615 14.5534 40.5737 14.5534 42.3714V48.0216ZM20.5459 33.8962V26.6196H23.9702V48.0216H20.5459V33.8962ZM37.6675 41.8578V26.6196H41.0918V48.0216H37.6675V41.8578ZM54.7891 48.0216H47.0844V42.457C47.0844 40.6593 48.0261 39.0327 49.4814 38.0054L50.9368 37.0637L52.3065 37.9198C53.8474 38.8615 54.7891 40.5737 54.7891 42.3714V48.0216ZM55.6452 48.0216V42.3714C55.6452 40.2312 54.6179 38.3479 52.8201 37.235L51.1936 36.2077C51.0224 36.1221 50.8512 36.1221 50.7655 36.2077L49.139 37.235C47.3412 38.3479 46.3139 40.3169 46.3139 42.3714V48.0216H42.0335V34.3243H60.0112V48.0216H55.6452Z" fill="#BFBFBF"/>
<path d="M16.6948 45.4536H18.4069C18.6637 45.4536 18.835 45.2824 18.835 45.0256V43.6559C18.835 43.1422 18.5781 42.6286 18.1501 42.3717L17.8077 42.2005C17.6364 42.1149 17.4652 42.1149 17.3796 42.2005L17.0372 42.4574C16.6092 42.7142 16.3523 43.2278 16.3523 43.7415V45.1112C16.2667 45.2824 16.4379 45.4536 16.6948 45.4536ZM17.1228 43.6559C17.1228 43.399 17.2084 43.2278 17.4652 43.0566L17.5508 42.971L17.6365 43.0566C17.8077 43.2278 17.9789 43.399 17.9789 43.6559V44.5976H17.1228V43.6559ZM6.16498 38.0057C6.84984 38.0057 7.4491 37.4065 7.4491 36.7216C7.4491 36.0368 6.84984 35.4375 6.16498 35.4375C5.48012 35.4375 4.88086 36.0368 4.88086 36.7216C4.88086 37.4065 5.48012 38.0057 6.16498 38.0057ZM6.16498 36.2936C6.4218 36.2936 6.59302 36.4648 6.59302 36.7216C6.59302 36.9784 6.4218 37.1497 6.16498 37.1497C5.90816 37.1497 5.73694 36.9784 5.73694 36.7216C5.73694 36.4648 5.90816 36.2936 6.16498 36.2936ZM14.7258 38.0057C15.4106 38.0057 16.0099 37.4065 16.0099 36.7216C16.0099 36.0368 15.4106 35.4375 14.7258 35.4375C14.0409 35.4375 13.4417 36.0368 13.4417 36.7216C13.4417 37.4065 14.0409 38.0057 14.7258 38.0057ZM14.7258 36.2936C14.9826 36.2936 15.1538 36.4648 15.1538 36.7216C15.1538 36.9784 14.9826 37.1497 14.7258 37.1497C14.469 37.1497 14.2977 36.9784 14.2977 36.7216C14.2977 36.4648 14.469 36.2936 14.7258 36.2936ZM44.6886 42.2861L44.3461 42.1149C44.1749 42.0293 44.0037 42.0293 43.9181 42.1149L43.5757 42.3717C43.1476 42.6286 42.8908 43.1422 42.8908 43.6559V45.0256C42.8908 45.2824 43.062 45.4536 43.3189 45.4536H45.031C45.2878 45.4536 45.459 45.2824 45.459 45.0256V43.6559C45.3734 43.0566 45.1166 42.543 44.6886 42.2861ZM44.5174 44.5976H43.6613V43.6559C43.6613 43.399 43.7469 43.2278 44.0037 43.0566L44.0893 42.971L44.1749 43.0566C44.3461 43.2278 44.5174 43.399 44.5174 43.6559V44.5976ZM58.3859 42.2861L58.0434 42.1149C57.8722 42.0293 57.701 42.0293 57.6154 42.1149L57.2729 42.3717C56.8449 42.6286 56.5881 43.1422 56.5881 43.6559V45.0256C56.5881 45.2824 56.7593 45.4536 57.0161 45.4536H58.7283C58.9851 45.4536 59.1563 45.2824 59.1563 45.0256V43.6559C59.0707 43.0566 58.8139 42.543 58.3859 42.2861ZM58.2146 44.5976H57.3586V43.6559C57.3586 43.399 57.4442 43.2278 57.701 43.0566L57.7866 42.971L57.8722 43.0566C58.0434 43.2278 58.2146 43.399 58.2146 43.6559V44.5976ZM46.4007 35.4375C45.7159 35.4375 45.1166 36.0368 45.1166 36.7216C45.1166 37.4065 45.7159 38.0057 46.4007 38.0057C47.0856 38.0057 47.6849 37.4065 47.6849 36.7216C47.6849 36.0368 47.0856 35.4375 46.4007 35.4375ZM46.4007 37.1497C46.1439 37.1497 45.9727 36.9784 45.9727 36.7216C45.9727 36.4648 46.1439 36.2936 46.4007 36.2936C46.6576 36.2936 46.8288 36.4648 46.8288 36.7216C46.8288 36.9784 46.6576 37.1497 46.4007 37.1497ZM54.9615 35.4375C54.2767 35.4375 53.6774 36.0368 53.6774 36.7216C53.6774 37.4065 54.2767 38.0057 54.9615 38.0057C55.6464 38.0057 56.2457 37.4065 56.2457 36.7216C56.2457 36.0368 55.6464 35.4375 54.9615 35.4375ZM54.9615 37.1497C54.7047 37.1497 54.5335 36.9784 54.5335 36.7216C54.5335 36.4648 54.7047 36.2936 54.9615 36.2936C55.2184 36.2936 55.3896 36.4648 55.3896 36.7216C55.3896 36.9784 55.2184 37.1497 54.9615 37.1497Z" fill="#BFBFBF"/>
</svg>
