<svg width="58" height="58" viewBox="0 0 58 58" fill="none" xmlns="http://www.w3.org/2000/svg">
<circle cx="29" cy="29" r="28.75" stroke="#65C294" stroke-width="0.5"/>
<circle cx="29" cy="29" r="20" fill="#65C294"/>
<mask id="mask0_1_213" style="mask-type:alpha" maskUnits="userSpaceOnUse" x="17" y="17" width="24" height="24">
<rect x="17" y="17" width="24" height="24" fill="#D9D9D9"/>
</mask>
<g mask="url(#mask0_1_213)">
<path d="M20 30.5V25.625C20 25.1583 20.1543 24.771 20.463 24.463C20.771 24.1543 21.1583 24 21.625 24H26V22.625C26 22.1583 26.1543 21.771 26.463 21.463C26.771 21.1543 27.1583 21 27.625 21H30.375C30.8417 21 31.2293 21.1543 31.538 21.463C31.846 21.771 32 22.1583 32 22.625V24H36.375C36.8417 24 37.2293 24.1543 37.538 24.463C37.846 24.771 38 25.1583 38 25.625V30.5H31V29.8C31 29.5667 30.925 29.375 30.775 29.225C30.625 29.075 30.4333 29 30.2 29H27.8C27.5667 29 27.375 29.075 27.225 29.225C27.075 29.375 27 29.5667 27 29.8V30.5H20ZM27 24H31V22.625C31 22.4583 30.9373 22.3127 30.812 22.188C30.6873 22.0627 30.5417 22 30.375 22H27.625C27.4583 22 27.3127 22.0627 27.188 22.188C27.0627 22.3127 27 22.4583 27 22.625V24ZM28 32V30H30V32H28ZM21.625 37C21.1583 37 20.771 36.846 20.463 36.538C20.1543 36.2293 20 35.8417 20 35.375V31.5H27V32.2C27 32.4333 27.075 32.625 27.225 32.775C27.375 32.925 27.5667 33 27.8 33H30.2C30.4333 33 30.625 32.925 30.775 32.775C30.925 32.625 31 32.4333 31 32.2V31.5H38V35.375C38 35.8417 37.846 36.2293 37.538 36.538C37.2293 36.846 36.8417 37 36.375 37H21.625Z" fill="white"/>
</g>
</svg>
