<svg width="58" height="58" viewBox="0 0 58 58" fill="none" xmlns="http://www.w3.org/2000/svg">
<circle cx="29" cy="29" r="28.75" stroke="#2D7BCC" stroke-width="0.5"/>
<circle cx="29" cy="29" r="20" fill="#2D7BCC"/>
<mask id="mask0_1_219" style="mask-type:alpha" maskUnits="userSpaceOnUse" x="17" y="17" width="24" height="24">
<rect x="17" y="17" width="24" height="24" fill="#D9D9D9"/>
</mask>
<g mask="url(#mask0_1_219)">
<path d="M19.625 36.625C19.1583 36.625 18.7707 36.471 18.462 36.163C18.154 35.8543 18 35.4667 18 35V23C18 22.5333 18.154 22.146 18.462 21.838C18.7707 21.5293 19.1583 21.375 19.625 21.375H38.375C38.8417 21.375 39.2293 21.5293 39.538 21.838C39.846 22.146 40 22.5333 40 23V35C40 35.4667 39.846 35.8543 39.538 36.163C39.2293 36.471 38.8417 36.625 38.375 36.625H19.625ZM26 31.225C26.7 31.225 27.2917 30.9833 27.775 30.5C28.2583 30.0167 28.5 29.425 28.5 28.725C28.5 28.0417 28.2583 27.454 27.775 26.962C27.2917 26.4707 26.7 26.225 26 26.225C25.3 26.225 24.7083 26.4707 24.225 26.962C23.7417 27.454 23.5 28.0417 23.5 28.725C23.5 29.425 23.7417 30.0167 24.225 30.5C24.7083 30.9833 25.3 31.225 26 31.225ZM34.775 33.95C34.925 34.1 35.1 34.171 35.3 34.163C35.5 34.1543 35.6667 34.075 35.8 33.925L36.425 33.3C36.575 33.15 36.6583 32.975 36.675 32.775C36.6917 32.575 36.6417 32.4 36.525 32.25L35.925 31.475C35.8583 31.375 35.7667 31.2957 35.65 31.237C35.5333 31.179 35.4167 31.15 35.3 31.15H33.975C33.8417 30.7833 33.75 30.429 33.7 30.087C33.65 29.7457 33.625 29.3833 33.625 29C33.625 28.6167 33.65 28.2627 33.7 27.938C33.75 27.6127 33.8417 27.25 33.975 26.85H35.3C35.4167 26.85 35.5333 26.8207 35.65 26.762C35.7667 26.704 35.8583 26.625 35.925 26.525L36.525 25.75C36.6417 25.6 36.6917 25.425 36.675 25.225C36.6583 25.025 36.575 24.85 36.425 24.7L35.8 24.075C35.6667 23.925 35.5 23.8457 35.3 23.837C35.1 23.829 34.925 23.9 34.775 24.05C34.125 24.7 33.621 25.454 33.263 26.312C32.9043 27.1707 32.725 28.0667 32.725 29C32.725 29.9333 32.9043 30.8293 33.263 31.688C33.621 32.546 34.125 33.3 34.775 33.95ZM20.225 35.625H31.775C31.075 34.7083 30.225 33.9793 29.225 33.438C28.225 32.896 27.15 32.625 26 32.625C24.85 32.625 23.775 32.896 22.775 33.438C21.775 33.9793 20.925 34.7083 20.225 35.625Z" fill="white"/>
</g>
</svg>
