<svg width="58" height="58" viewBox="0 0 58 58" fill="none" xmlns="http://www.w3.org/2000/svg">
<circle cx="29" cy="29" r="20" fill="#B259B3"/>
<circle cx="29" cy="29" r="28.75" stroke="#B259B3" stroke-width="0.5"/>
<mask id="mask0_1_201" style="mask-type:alpha" maskUnits="userSpaceOnUse" x="17" y="17" width="24" height="24">
<rect x="17" y="17" width="24" height="24" fill="#D9D9D9"/>
</mask>
<g mask="url(#mask0_1_201)">
<path d="M27 28.375C26.1667 28.375 25.4583 28.0833 24.875 27.5C24.2917 26.9167 24 26.2083 24 25.375C24 24.5583 24.2917 23.854 24.875 23.262C25.4583 22.6707 26.1667 22.375 27 22.375C27.8333 22.375 28.5417 22.6707 29.125 23.262C29.7083 23.854 30 24.5583 30 25.375C30 26.2083 29.7083 26.9167 29.125 27.5C28.5417 28.0833 27.8333 28.375 27 28.375ZM20.8 35.625C20.5667 35.625 20.375 35.5457 20.225 35.387C20.075 35.229 20 35.0333 20 34.8V33.975C20 33.5083 20.1167 33.1083 20.35 32.775C20.5833 32.4417 20.9083 32.175 21.325 31.975C22.1417 31.575 22.9793 31.25 23.838 31C24.696 30.75 25.75 30.625 27 30.625H27.45C27.3833 30.7917 27.3293 30.9583 27.288 31.125C27.246 31.2917 27.2083 31.4583 27.175 31.625C27.0917 32.2083 27.0583 32.7083 27.075 33.125C27.0917 33.5417 27.1667 34.0417 27.3 34.625C27.35 34.775 27.4083 34.9417 27.475 35.125C27.5417 35.3083 27.6167 35.475 27.7 35.625H20.8ZM33.625 34.075C34.125 34.075 34.55 33.9 34.9 33.55C35.25 33.2 35.425 32.775 35.425 32.275C35.425 31.775 35.25 31.346 34.9 30.988C34.55 30.6293 34.125 30.45 33.625 30.45C33.125 30.45 32.696 30.6293 32.338 30.988C31.9793 31.346 31.8 31.775 31.8 32.275C31.8 32.775 31.9793 33.2 32.338 33.55C32.696 33.9 33.125 34.075 33.625 34.075ZM33.075 34.95C32.7917 34.8833 32.5293 34.7833 32.288 34.65C32.046 34.5167 31.825 34.3417 31.625 34.125L30.775 34.475C30.6917 34.5083 30.6167 34.5083 30.55 34.475C30.4833 34.4417 30.4333 34.3833 30.4 34.3L30.25 34.075C30.2167 34.0083 30.2043 33.9377 30.213 33.863C30.221 33.7877 30.2583 33.725 30.325 33.675L31.025 33.15C30.925 32.8667 30.875 32.575 30.875 32.275C30.875 31.975 30.925 31.6833 31.025 31.4L30.35 30.825C30.2833 30.775 30.2417 30.7123 30.225 30.637C30.2083 30.5623 30.225 30.4833 30.275 30.4L30.4 30.175C30.45 30.1083 30.5083 30.0623 30.575 30.037C30.6417 30.0123 30.7167 30.0167 30.8 30.05L31.625 30.4C31.8083 30.1833 32.025 30.0083 32.275 29.875C32.525 29.7417 32.7917 29.65 33.075 29.6L33.175 28.7C33.1917 28.6333 33.2293 28.575 33.288 28.525C33.346 28.475 33.4167 28.45 33.5 28.45H33.775C33.8583 28.45 33.9293 28.475 33.988 28.525C34.046 28.575 34.0833 28.6333 34.1 28.7L34.175 29.6C34.4583 29.65 34.725 29.7417 34.975 29.875C35.225 30.0083 35.4417 30.1833 35.625 30.4L36.45 30.05C36.5333 30.0167 36.6127 30.0167 36.688 30.05C36.7627 30.0833 36.8167 30.1333 36.85 30.2L37 30.45C37.0333 30.5167 37.0417 30.5833 37.025 30.65C37.0083 30.7167 36.975 30.775 36.925 30.825L36.225 31.4C36.325 31.6833 36.375 31.975 36.375 32.275C36.375 32.575 36.325 32.8667 36.225 33.15L36.925 33.675C37.0083 33.725 37.05 33.7917 37.05 33.875C37.05 33.9583 37.025 34.0417 36.975 34.125L36.85 34.35C36.8 34.4167 36.746 34.4623 36.688 34.487C36.6293 34.5123 36.5583 34.5083 36.475 34.475L35.625 34.125C35.425 34.3417 35.204 34.5167 34.962 34.65C34.7207 34.7833 34.4583 34.8833 34.175 34.95L34.1 35.825C34.0833 35.9083 34.046 35.975 33.988 36.025C33.9293 36.075 33.8583 36.1 33.775 36.1H33.5C33.4167 36.1 33.346 36.075 33.288 36.025C33.2293 35.975 33.1917 35.9083 33.175 35.825L33.075 34.95Z" fill="white"/>
</g>
</svg>
