<svg width="58" height="58" viewBox="0 0 58 58" fill="none" xmlns="http://www.w3.org/2000/svg">
<circle cx="29" cy="29" r="28.75" stroke="#D3D21A" stroke-width="0.5"/>
<circle cx="29" cy="29" r="20" fill="#D3D21A"/>
<mask id="mask0_1_207" style="mask-type:alpha" maskUnits="userSpaceOnUse" x="17" y="17" width="24" height="24">
<rect x="17" y="17" width="24" height="24" fill="#D9D9D9"/>
</mask>
<g mask="url(#mask0_1_207)">
<path d="M29.925 28.05L26.375 24.5L27.1 23.825L29.925 26.65L35.6 21L36.3 21.675L29.925 28.05ZM30.65 38.075L23.05 35.85V29H25.4L31.45 31.225C31.8167 31.3583 32.129 31.6 32.387 31.95C32.6457 32.3 32.775 32.75 32.775 33.3H31.775C31.125 33.3 30.5583 33.275 30.075 33.225C29.5917 33.175 29.1833 33.0917 28.85 32.975L26.95 32.325L26.65 33.075L28.55 33.7C28.9167 33.8333 29.321 33.929 29.763 33.987C30.2043 34.0457 30.6417 34.075 31.075 34.075H35.775C36.4083 34.075 36.8793 34.2293 37.188 34.538C37.496 34.846 37.65 35.2083 37.65 35.625V35.875L30.65 38.075ZM19.05 37.15V29H22.05V37.15H19.05Z" fill="white"/>
</g>
</svg>
