<svg width="77" height="39" viewBox="0 0 77 39" fill="none" xmlns="http://www.w3.org/2000/svg">
<line x1="0.734375" y1="38.2947" x2="76.2607" y2="38.2947" stroke="#BFBFBF" stroke-width="1.00702"/>
<line x1="4.76172" y1="36.282" x2="71.2249" y2="36.282" stroke="#BFBFBF" stroke-width="1.00702"/>
<line x1="5.26602" y1="37.7892" x2="5.26602" y2="14.6278" stroke="#BFBFBF" stroke-width="1.00702"/>
<line x1="4.76172" y1="30.2388" x2="14.8319" y2="30.2388" stroke="#BFBFBF" stroke-width="1.00702"/>
<line x1="4.76172" y1="24.1956" x2="14.8319" y2="24.1956" stroke="#BFBFBF" stroke-width="1.00702"/>
<line x1="4.76172" y1="15.1307" x2="14.8319" y2="15.1307" stroke="#BFBFBF" stroke-width="1.00702"/>
<line x1="3.75586" y1="17.1487" x2="15.8401" y2="17.1487" stroke="#BFBFBF" stroke-width="1.00702"/>
<line x1="5.76953" y1="11.1055" x2="13.8257" y2="11.1055" stroke="#BFBFBF" stroke-width="1.00702"/>
<line x1="5.76953" y1="11.1055" x2="13.8257" y2="11.1055" stroke="#BFBFBF" stroke-width="1.00702"/>
<line x1="6.27304" y1="10.6" x2="6.27304" y2="15.6351" stroke="#BFBFBF" stroke-width="1.00702"/>
<line x1="13.3219" y1="10.6" x2="13.3219" y2="15.6351" stroke="#BFBFBF" stroke-width="1.00702"/>
<line x1="14.3305" y1="37.7892" x2="14.3305" y2="14.6278" stroke="#BFBFBF" stroke-width="1.00702"/>
<path d="M9.12753 7.8295L9.81984 7.22378L10.8745 8.02295C11.9412 8.8313 12.6173 10.0417 12.7556 11.3581H6.935C7.29764 9.99453 8.05881 8.76456 9.12753 7.8295Z" stroke="#BFBFBF" stroke-width="1.00702"/>
<line x1="0.734375" y1="38.2947" x2="76.2607" y2="38.2947" stroke="#BFBFBF" stroke-width="1.00702"/>
<line x1="4.76172" y1="36.282" x2="71.2249" y2="36.282" stroke="#BFBFBF" stroke-width="1.00702"/>
<line x1="5.26602" y1="37.7892" x2="5.26602" y2="14.6278" stroke="#BFBFBF" stroke-width="1.00702"/>
<line x1="4.76172" y1="30.2388" x2="14.8319" y2="30.2388" stroke="#BFBFBF" stroke-width="1.00702"/>
<line x1="4.76172" y1="24.1956" x2="14.8319" y2="24.1956" stroke="#BFBFBF" stroke-width="1.00702"/>
<line x1="4.76172" y1="15.1307" x2="14.8319" y2="15.1307" stroke="#BFBFBF" stroke-width="1.00702"/>
<line x1="3.75586" y1="17.1487" x2="15.8401" y2="17.1487" stroke="#BFBFBF" stroke-width="1.00702"/>
<line x1="13.8242" y1="21.174" x2="25.9084" y2="21.174" stroke="#BFBFBF" stroke-width="1.00702"/>
<line x1="13.8242" y1="25.2046" x2="25.9084" y2="25.2046" stroke="#BFBFBF" stroke-width="1.00702"/>
<line x1="24.9023" y1="25.2046" x2="30.9444" y2="25.2046" stroke="#BFBFBF" stroke-width="1.00702"/>
<line x1="24.9023" y1="31.2478" x2="30.9444" y2="31.2478" stroke="#BFBFBF" stroke-width="1.00702"/>
<line x1="30.9453" y1="22.183" x2="46.0506" y2="22.183" stroke="#BFBFBF" stroke-width="1.00702"/>
<line x1="30.9453" y1="19.1613" x2="46.0506" y2="19.1613" stroke="#BFBFBF" stroke-width="1.00702"/>
<line x1="30.9453" y1="13.1181" x2="46.0506" y2="13.1181" stroke="#BFBFBF" stroke-width="1.00702"/>
<line x1="29.9395" y1="10.0965" x2="48.0658" y2="10.0965" stroke="#BFBFBF" stroke-width="1.00702"/>
<path d="M30.9453 16.1414L36.4839 16.1414" stroke="#BFBFBF" stroke-width="1.00702"/>
<path d="M40.5117 16.1414L46.0503 16.1414" stroke="#BFBFBF" stroke-width="1.00702"/>
<line x1="34.4703" y1="22.6865" x2="34.4703" y2="36.7847" stroke="#BFBFBF" stroke-width="1.00702"/>
<line x1="42.5269" y1="22.6865" x2="42.5269" y2="36.7847" stroke="#BFBFBF" stroke-width="1.00702"/>
<line x1="14.834" y1="31.2478" x2="25.9112" y2="31.2478" stroke="#BFBFBF" stroke-width="1.00702"/>
<line x1="5.76953" y1="11.1055" x2="13.8257" y2="11.1055" stroke="#BFBFBF" stroke-width="1.00702"/>
<line x1="5.76953" y1="11.1055" x2="13.8257" y2="11.1055" stroke="#BFBFBF" stroke-width="1.00702"/>
<line x1="6.27304" y1="10.6" x2="6.27304" y2="15.6351" stroke="#BFBFBF" stroke-width="1.00702"/>
<line x1="13.3219" y1="10.6" x2="13.3219" y2="15.6351" stroke="#BFBFBF" stroke-width="1.00702"/>
<line x1="14.3305" y1="37.7892" x2="14.3305" y2="14.6278" stroke="#BFBFBF" stroke-width="1.00702"/>
<line x1="30.4418" y1="36.7856" x2="30.4418" y2="17.6522" stroke="#BFBFBF" stroke-width="1.00702"/>
<line x1="25.4066" y1="36.7856" x2="25.4066" y2="17.6522" stroke="#BFBFBF" stroke-width="1.00702"/>
<path d="M9.12753 7.8295L9.81984 7.22378L10.8745 8.02295C11.9412 8.8313 12.6173 10.0417 12.7556 11.3581H6.935C7.29764 9.99453 8.05881 8.76456 9.12753 7.8295Z" stroke="#BFBFBF" stroke-width="1.00702"/>
<path d="M19.7373 28.3791L19.8264 28.3272L20.5212 28.8676C21.3106 29.4816 21.9005 30.3089 22.2253 31.2453H17.4801C17.84 30.0456 18.6426 29.0177 19.7373 28.3791Z" stroke="#BFBFBF" stroke-width="1.00702"/>
<path d="M19.7373 33.4134L19.8264 33.3614L20.5212 33.9019C21.3106 34.5158 21.9005 35.3432 22.2253 36.2795H17.4801C17.84 35.0798 18.6426 34.0519 19.7373 33.4134Z" stroke="#BFBFBF" stroke-width="1.00702"/>
<path d="M56.9971 28.3791L57.0861 28.3272L57.781 28.8676C58.5704 29.4816 59.1602 30.3089 59.4851 31.2453H54.7399C55.0997 30.0456 55.9024 29.0177 56.9971 28.3791Z" stroke="#BFBFBF" stroke-width="1.00702"/>
<path d="M56.9971 33.4134L57.0861 33.3614L57.781 33.9019C58.5704 34.5158 59.1602 35.3432 59.4851 36.2795H54.7399C55.0997 35.0798 55.9024 34.0519 56.9971 33.4134Z" stroke="#BFBFBF" stroke-width="1.00702"/>
<path d="M27.5841 13.4316L27.9488 13.2211L29.0639 14.0662C30.1307 14.8745 30.8067 16.0849 30.945 17.4013H25.0261C25.1872 15.7534 26.1325 14.2697 27.5841 13.4316Z" stroke="#BFBFBF" stroke-width="1.00702"/>
<path d="M37.584 1.65006L38.4587 1.13745L40.7445 2.89574C43.0034 4.63341 44.3794 7.26869 44.5259 10.0982H32.4669C32.6358 6.61053 34.5521 3.42701 37.584 1.65006Z" stroke="#BFBFBF" stroke-width="1.00702"/>
<path d="M38.3797 14.2998L38.4563 14.2497L39.4003 15.0589C40.6165 16.1013 41.3656 17.5773 41.4974 19.1602H35.4959C35.651 17.1904 36.7095 15.3904 38.3797 14.2998Z" stroke="#BFBFBF" stroke-width="1.00702"/>
<path d="M40.1371 25.1309C39.1237 24.5956 37.9063 24.6186 36.914 25.192L36.8273 25.2421C35.3683 26.0851 34.4696 27.6421 34.4696 29.3271V36.2832H42.5258V29.0943C42.5258 27.4325 41.6064 25.9071 40.1371 25.1309Z" stroke="#BFBFBF" stroke-width="1.00702"/>
<line x1="10.3004" y1="19.1594" x2="10.3004" y2="22.1804" stroke="#BFBFBF" stroke-width="1.00702" stroke-linecap="round"/>
<line x1="28.4273" y1="20.1683" x2="28.4273" y2="22.1824" stroke="#BFBFBF" stroke-width="1.00702" stroke-linecap="round"/>
<line x1="32.4547" y1="10.6" x2="32.4547" y2="13.6211" stroke="#BFBFBF" stroke-width="1.00702"/>
<line x1="35.4762" y1="10.6" x2="35.4762" y2="13.6211" stroke="#BFBFBF" stroke-width="1.00702"/>
<line x1="38.4976" y1="10.6" x2="38.4977" y2="13.6211" stroke="#BFBFBF" stroke-width="1.00702"/>
<line x1="41.5191" y1="10.6" x2="41.5191" y2="13.6211" stroke="#BFBFBF" stroke-width="1.00702"/>
<line x1="44.5387" y1="10.6" x2="44.5387" y2="13.6211" stroke="#BFBFBF" stroke-width="1.00702"/>
<line x1="31.7803" y1="12.851" x2="30.3824" y2="15.5291" stroke="#BFBFBF" stroke-width="1.00702"/>
<line x1="44.3912" y1="13.2656" x2="46.4052" y2="15.2796" stroke="#BFBFBF" stroke-width="1.00702"/>
<line x1="10.3004" y1="12.618" x2="10.3004" y2="15.639" stroke="#BFBFBF" stroke-width="1.00702"/>
<line x1="28.4273" y1="27.2152" x2="28.4273" y2="29.2293" stroke="#BFBFBF" stroke-width="1.00702" stroke-linecap="round"/>
<line x1="28.4273" y1="33.2585" x2="28.4273" y2="34.2655" stroke="#BFBFBF" stroke-width="1.00702" stroke-linecap="round"/>
<line x1="10.3004" y1="26.2116" x2="10.3004" y2="28.2256" stroke="#BFBFBF" stroke-width="1.00702" stroke-linecap="round"/>
<line x1="10.3004" y1="32.2548" x2="10.3004" y2="34.2688" stroke="#BFBFBF" stroke-width="1.00702" stroke-linecap="round"/>
<line y1="-0.503509" x2="23.1614" y2="-0.503509" transform="matrix(4.37114e-08 -1 -1 -4.37114e-08 70.75 37.7892)" stroke="#BFBFBF" stroke-width="1.00702"/>
<line y1="-0.503509" x2="10.0702" y2="-0.503509" transform="matrix(-1 0 0 1 71.7559 30.7423)" stroke="#BFBFBF" stroke-width="1.00702"/>
<line y1="-0.503509" x2="10.0702" y2="-0.503509" transform="matrix(-1 0 0 1 71.7559 24.6991)" stroke="#BFBFBF" stroke-width="1.00702"/>
<line y1="-0.503509" x2="10.0702" y2="-0.503509" transform="matrix(-1 0 0 1 71.7559 15.6342)" stroke="#BFBFBF" stroke-width="1.00702"/>
<line y1="-0.503509" x2="12.0842" y2="-0.503509" transform="matrix(-1 0 0 1 72.7656 17.6522)" stroke="#BFBFBF" stroke-width="1.00702"/>
<line y1="-0.503509" x2="12.0842" y2="-0.503509" transform="matrix(-1 0 0 1 62.6934 21.6775)" stroke="#BFBFBF" stroke-width="1.00702"/>
<line y1="-0.503509" x2="12.0842" y2="-0.503509" transform="matrix(-1 0 0 1 62.6934 25.7081)" stroke="#BFBFBF" stroke-width="1.00702"/>
<line y1="-0.503509" x2="6.04211" y2="-0.503509" transform="matrix(-1 0 0 1 51.6152 25.7081)" stroke="#BFBFBF" stroke-width="1.00702"/>
<line y1="-0.503509" x2="6.04211" y2="-0.503509" transform="matrix(-1 0 0 1 51.6152 31.7513)" stroke="#BFBFBF" stroke-width="1.00702"/>
<line y1="-0.503509" x2="11.0772" y2="-0.503509" transform="matrix(-1 0 0 1 61.6875 31.7513)" stroke="#BFBFBF" stroke-width="1.00702"/>
<line y1="-0.503509" x2="8.05614" y2="-0.503509" transform="matrix(-1 0 0 1 70.75 11.609)" stroke="#BFBFBF" stroke-width="1.00702"/>
<line y1="-0.503509" x2="8.05614" y2="-0.503509" transform="matrix(-1 0 0 1 70.75 11.609)" stroke="#BFBFBF" stroke-width="1.00702"/>
<line y1="-0.503509" x2="5.03509" y2="-0.503509" transform="matrix(-4.37114e-08 1 1 4.37114e-08 70.75 10.6)" stroke="#BFBFBF" stroke-width="1.00702"/>
<line y1="-0.503509" x2="5.03509" y2="-0.503509" transform="matrix(-4.37114e-08 1 1 4.37114e-08 63.6992 10.6)" stroke="#BFBFBF" stroke-width="1.00702"/>
<line y1="-0.503509" x2="23.1614" y2="-0.503509" transform="matrix(4.37114e-08 -1 -1 -4.37114e-08 61.6875 37.7892)" stroke="#BFBFBF" stroke-width="1.00702"/>
<line y1="-0.503509" x2="19.1333" y2="-0.503509" transform="matrix(-4.37114e-08 -1 -1 4.37114e-08 45.5762 36.7856)" stroke="#BFBFBF" stroke-width="1.00702"/>
<line y1="-0.503509" x2="19.1333" y2="-0.503509" transform="matrix(-4.37114e-08 -1 -1 4.37114e-08 50.6094 36.7856)" stroke="#BFBFBF" stroke-width="1.00702"/>
<path d="M67.3881 7.8295L66.6958 7.22378L65.6412 8.02295C64.5744 8.8313 63.8983 10.0417 63.7601 11.3581H69.5806C69.218 9.99453 68.4568 8.76456 67.3881 7.8295Z" stroke="#BFBFBF" stroke-width="1.00702"/>
<path d="M48.9354 13.4316L48.5708 13.2211L47.4556 14.0662C46.3889 14.8745 45.7128 16.0849 45.5745 17.4013H51.4934C51.3323 15.7534 50.387 14.2697 48.9354 13.4316Z" stroke="#BFBFBF" stroke-width="1.00702"/>
<line x1="66.693" y1="19.1594" x2="66.693" y2="22.1804" stroke="#BFBFBF" stroke-width="1.00702" stroke-linecap="round"/>
<line x1="0.503509" y1="-0.503509" x2="2.51754" y2="-0.503509" transform="matrix(4.37112e-08 1 1 -4.37112e-08 49.0723 19.6648)" stroke="#BFBFBF" stroke-width="1.00702" stroke-linecap="round"/>
<line y1="-0.503509" x2="3.02105" y2="-0.503509" transform="matrix(4.37112e-08 1 1 -4.37112e-08 66.7207 12.618)" stroke="#BFBFBF" stroke-width="1.00702"/>
<line x1="0.503509" y1="-0.503509" x2="2.51754" y2="-0.503509" transform="matrix(4.37112e-08 1 1 -4.37112e-08 49.0723 26.7117)" stroke="#BFBFBF" stroke-width="1.00702" stroke-linecap="round"/>
<line x1="0.503509" y1="-0.503509" x2="1.51053" y2="-0.503509" transform="matrix(4.37112e-08 1 1 -4.37112e-08 49.0723 32.7549)" stroke="#BFBFBF" stroke-width="1.00702" stroke-linecap="round"/>
<line x1="0.503509" y1="-0.503509" x2="2.51754" y2="-0.503509" transform="matrix(4.37112e-08 1 1 -4.37112e-08 67.1973 25.7081)" stroke="#BFBFBF" stroke-width="1.00702" stroke-linecap="round"/>
<line x1="0.503509" y1="-0.503509" x2="2.51754" y2="-0.503509" transform="matrix(4.37112e-08 1 1 -4.37112e-08 67.1973 31.7513)" stroke="#BFBFBF" stroke-width="1.00702" stroke-linecap="round"/>
</svg>
