<svg width="46" height="71" viewBox="0 0 46 71" fill="none" xmlns="http://www.w3.org/2000/svg">
<path d="M25.4479 0.476562C24.3689 0.476562 23.4923 1.35198 23.4923 2.43217V4.50281C23.5051 4.64648 23.5713 4.78013 23.6777 4.87747C23.7842 4.97482 23.9232 5.0288 24.0675 5.0288C24.2117 5.0288 24.3507 4.97482 24.4572 4.87747C24.5636 4.78013 24.6298 4.64648 24.6426 4.50281V2.43217C24.6505 2.22402 24.7387 2.02702 24.8888 1.88254C25.0388 1.73807 25.239 1.65735 25.4473 1.65735C25.6556 1.65735 25.8558 1.73807 26.0058 1.88254C26.1559 2.02702 26.2441 2.22402 26.252 2.43217L26.2198 13.517C26.2198 13.5722 26.2313 13.6148 26.2336 13.6666C25.3847 13.5024 24.5287 13.3777 23.6683 13.2927C23.5765 13.2584 23.4775 13.2481 23.3807 13.2628H23.3784C21.9829 13.1272 20.5789 13.1025 19.1796 13.1892C18.6205 13.226 18.0637 13.2835 17.5093 13.3548V12.5553C17.5093 12.4028 17.4487 12.2565 17.3408 12.1486C17.2329 12.0407 17.0866 11.9801 16.9341 11.9801C16.7815 11.9801 16.6352 12.0407 16.5274 12.1486C16.4195 12.2565 16.3589 12.4028 16.3589 12.5553V13.5331C13.4433 14.0412 10.6302 15.0215 8.03032 16.4355L6.40602 8.20351C6.32319 7.80779 6.37151 7.5064 6.53371 7.40286C6.6752 7.30738 6.92828 7.34995 7.16065 7.5179L12.5708 10.9287C13.3256 11.3599 14.2103 11.5053 15.0635 11.3385C15.9166 11.1717 16.6814 10.7037 17.2182 10.0199C17.4529 9.71738 17.6197 9.35847 17.7048 8.98921L19.1117 2.55296C19.1199 2.51283 19.1242 2.47198 19.1244 2.43102C19.1244 2.21791 19.209 2.01353 19.3597 1.86284C19.5104 1.71215 19.7148 1.6275 19.9279 1.6275C20.141 1.6275 20.3454 1.71215 20.4961 1.86284C20.6468 2.01353 20.7314 2.21791 20.7314 2.43102V4.50281C20.7314 4.65506 20.7919 4.80106 20.8995 4.90871C21.0072 5.01636 21.1532 5.07684 21.3054 5.07684C21.4577 5.07684 21.6037 5.01636 21.7113 4.90871C21.819 4.80106 21.8795 4.65506 21.8795 4.50281V2.43332C21.8792 1.91546 21.6735 1.41886 21.3075 1.05246C20.9415 0.686059 20.4452 0.479777 19.9273 0.478863C18.8713 0.478863 18.0062 1.32092 17.9717 2.3689L16.6718 8.42553L16.5913 8.69932C16.5361 8.93399 16.4371 9.14796 16.3071 9.31591C15.9446 9.77857 15.4284 10.0962 14.852 10.2114C14.2755 10.3266 13.6769 10.2318 13.1644 9.944L7.80715 6.57001C7.21817 6.13862 6.45779 6.08571 5.91367 6.43772C5.63528 6.61602 5.01639 7.16589 5.27752 8.43244L7.03296 17.3247C8.23164 23.3986 9.69374 26.1445 15.2086 26.4447V34.9873H4.28016C4.12761 34.9873 3.98131 35.0479 3.87345 35.1558C3.76558 35.2636 3.70498 35.4099 3.70498 35.5625V69.498H0.829085C0.676538 69.498 0.53024 69.5586 0.422373 69.6665C0.314506 69.7743 0.253906 69.9206 0.253906 70.0732C0.253906 70.2257 0.314506 70.372 0.422373 70.4799C0.53024 70.5878 0.676538 70.6484 0.829085 70.6484H44.5427C44.6952 70.6484 44.8415 70.5878 44.9494 70.4799C45.0573 70.372 45.1178 70.2257 45.1178 70.0732C45.1178 69.9206 45.0573 69.7743 44.9494 69.6665C44.8415 69.5586 44.6952 69.498 44.5427 69.498H41.6679V35.5625C41.6679 35.4099 41.6073 35.2636 41.4995 35.1558C41.3916 35.0479 41.2453 34.9873 41.0927 34.9873H18.6608V26.3976L19.3165 26.355C19.5523 26.3366 19.7824 26.2929 20.0159 26.2607C20.0355 26.2607 20.0539 26.2676 20.0734 26.2676H20.0826C20.1631 26.2676 20.2391 26.2492 20.3081 26.2204C21.8036 25.9788 23.276 25.4784 24.8635 24.641C26.6408 23.7034 28.3951 22.4196 30.0792 20.8229L30.9869 19.9625C31.3797 19.5931 31.8418 19.3052 32.3464 19.1153C32.851 18.9253 33.3883 18.8372 33.9272 18.8558L36.8054 19.1158C38.2525 19.232 39.2326 18.681 39.6905 17.4558C39.8883 16.8577 39.84 16.2158 39.5559 15.6532C39.417 15.3762 39.2245 15.1295 38.9895 14.9275C38.7545 14.7255 38.4817 14.5721 38.1869 14.4764L33.8961 13.0615C33.4866 12.9269 32.8677 12.7854 32.1959 13.096C32.1586 13.1134 32.1231 13.1346 32.09 13.1593C30.8408 14.106 28.6999 15.2472 27.8429 14.8273C27.5277 14.6697 27.3667 14.2279 27.3667 13.5159L27.4035 2.43217C27.4035 1.35429 26.5258 0.477713 25.4479 0.477713V0.476562ZM19.236 6.51594C19.1597 6.51594 19.0865 6.54624 19.0326 6.60017C18.9787 6.65411 18.9484 6.72726 18.9484 6.80353C18.9484 6.8798 18.9787 6.95295 19.0326 7.00689C19.0865 7.06082 19.1597 7.09112 19.236 7.09112H20.3863C20.4626 7.09112 20.5357 7.06082 20.5897 7.00689C20.6436 6.95295 20.6739 6.8798 20.6739 6.80353C20.6739 6.72726 20.6436 6.65411 20.5897 6.60017C20.5357 6.54624 20.4626 6.51594 20.3863 6.51594H19.236ZM23.8374 6.51594C23.7611 6.51594 23.688 6.54624 23.634 6.60017C23.5801 6.65411 23.5498 6.72726 23.5498 6.80353C23.5498 6.8798 23.5801 6.95295 23.634 7.00689C23.688 7.06082 23.7611 7.09112 23.8374 7.09112H24.9877C25.064 7.09112 25.1372 7.06082 25.1911 7.00689C25.245 6.95295 25.2753 6.8798 25.2753 6.80353C25.2753 6.72726 25.245 6.65411 25.1911 6.60017C25.1372 6.54624 25.064 6.51594 24.9877 6.51594H23.8374ZM21.5367 8.81665C21.4604 8.81665 21.3872 8.84695 21.3333 8.90089C21.2794 8.95482 21.2491 9.02797 21.2491 9.10424C21.2491 9.18052 21.2794 9.25367 21.3333 9.3076C21.3872 9.36153 21.4604 9.39183 21.5367 9.39183H22.687C22.7633 9.39183 22.8365 9.36153 22.8904 9.3076C22.9443 9.25367 22.9746 9.18052 22.9746 9.10424C22.9746 9.02797 22.9443 8.95482 22.8904 8.90089C22.8365 8.84695 22.7633 8.81665 22.687 8.81665H21.5367ZM19.236 11.1174C19.1597 11.1174 19.0865 11.1477 19.0326 11.2016C18.9787 11.2555 18.9484 11.3287 18.9484 11.405C18.9484 11.4812 18.9787 11.5544 19.0326 11.6083C19.0865 11.6622 19.1597 11.6925 19.236 11.6925H20.3863C20.4626 11.6925 20.5357 11.6622 20.5897 11.6083C20.6436 11.5544 20.6739 11.4812 20.6739 11.405C20.6739 11.3287 20.6436 11.2555 20.5897 11.2016C20.5357 11.1477 20.4626 11.1174 20.3863 11.1174H19.236ZM23.8374 11.1174C23.7611 11.1174 23.688 11.1477 23.634 11.2016C23.5801 11.2555 23.5498 11.3287 23.5498 11.405C23.5498 11.4812 23.5801 11.5544 23.634 11.6083C23.688 11.6622 23.7611 11.6925 23.8374 11.6925H24.9877C25.064 11.6925 25.1372 11.6622 25.1911 11.6083C25.245 11.5544 25.2753 11.4812 25.2753 11.405C25.2753 11.3287 25.245 11.2555 25.1911 11.2016C25.1372 11.1477 25.064 11.1174 24.9877 11.1174H23.8374ZM33.1254 14.0588C33.2588 14.068 33.3957 14.1048 33.5441 14.1532L37.8349 15.5658C38.1409 15.6659 38.3894 15.8833 38.5367 16.1709C38.6804 16.4585 38.7058 16.7863 38.6126 17.0716C38.4251 17.5663 38.0719 18.0667 36.91 17.97L34.0111 17.7078C32.6307 17.6583 31.2181 18.1633 30.2 19.1273L29.2924 19.9878C27.683 21.5108 26.0162 22.7325 24.332 23.6206C22.8078 24.4247 21.4078 24.8952 19.9929 25.1057C19.4768 25.0695 18.9934 24.8395 18.6397 24.4619C18.286 24.0843 18.0881 23.587 18.0856 23.0696C18.0856 22.7153 18.1776 22.3679 18.3525 22.0596C18.4278 21.9266 18.4475 21.7692 18.4072 21.6218C18.3669 21.4744 18.2699 21.3489 18.1374 21.2727C18.0037 21.1989 17.8464 21.1805 17.6993 21.2213C17.5522 21.2622 17.427 21.3591 17.3505 21.4913C17.077 21.9728 16.9331 22.517 16.9329 23.0707C16.9329 23.9312 17.2826 24.7192 17.8452 25.2967L17.6519 25.3082C17.5037 25.3174 17.3552 25.322 17.2067 25.322H16.2864C10.8867 25.322 9.50163 23.4699 8.30066 17.7319H16.9352C17.0878 17.7319 17.2341 17.6713 17.342 17.5635C17.4498 17.4556 17.5104 17.3093 17.5104 17.1567V14.5213C17.951 14.4615 18.3916 14.4223 18.8333 14.3832L19.3165 16.5574C19.5155 17.2522 20.1528 17.7124 20.9408 17.7319H20.9903C21.7633 17.7319 22.4075 17.2982 22.6468 16.5793L23.0943 14.8112L23.4037 16.4217C23.5947 17.189 24.255 17.7147 25.0464 17.7319H25.0821C25.8551 17.7319 26.5177 17.2361 26.7443 16.4539L26.9376 15.5681C27.0572 15.6808 27.1861 15.7809 27.3379 15.8557C27.9304 16.149 28.6758 16.0789 29.4224 15.8603C30.1103 16.4953 30.9903 16.8692 31.9255 16.8692C32.4041 16.8692 32.8757 16.7771 33.3278 16.5954C33.371 16.5767 33.4089 16.548 33.4386 16.5115C33.4682 16.4751 33.4886 16.432 33.4981 16.386C33.5087 16.3403 33.5077 16.2927 33.4952 16.2476C33.4828 16.2024 33.4592 16.161 33.4268 16.1272C32.9458 15.6241 32.5947 15.0113 32.4041 14.3418C32.5053 14.2705 32.6767 14.1578 32.7319 14.1164C32.8568 14.0669 32.9915 14.0472 33.1254 14.0588ZM21.065 14.2855C21.3871 14.2878 21.7092 14.3119 22.0313 14.3257L21.5459 16.256C21.4619 16.5056 21.2399 16.6 20.9684 16.5839C20.7602 16.5793 20.4921 16.4838 20.4312 16.2733L19.9975 14.3177C20.3541 14.3039 20.7084 14.2832 21.065 14.2855ZM24.2055 14.5075C24.7844 14.581 25.3606 14.6739 25.9333 14.7859L25.6308 16.1686C25.6018 16.2932 25.5291 16.4034 25.4259 16.4791C25.3228 16.5549 25.1959 16.5912 25.0683 16.5816C24.9647 16.5793 24.6196 16.5413 24.5276 16.1743L24.2055 14.5075ZM31.9186 14.6743C32.1016 15.223 32.3581 15.7407 32.7193 16.1904C31.7921 16.4332 30.8178 16.2054 30.062 15.6383C30.7591 15.3564 31.4194 14.9929 31.9186 14.6743ZM16.3601 14.6984V16.5816H10.3207C12.2501 15.7115 14.2781 15.0792 16.3601 14.6984ZM16.3601 26.4746H17.5104V34.9873H16.3601V26.4746ZM4.85649 36.1376H40.5176V69.498H39.3672V37.8632C39.3672 37.7106 39.3066 37.5643 39.1987 37.4565C39.0909 37.3486 38.9446 37.288 38.792 37.288H6.58202C6.42948 37.288 6.28318 37.3486 6.17531 37.4565C6.06744 37.5643 6.00684 37.7106 6.00684 37.8632V69.498H4.85649V36.1376ZM7.1572 38.4384H15.2097V61.4455H14.6345C14.482 61.4455 14.3357 61.5061 14.2278 61.614C14.1199 61.7218 14.0593 61.8681 14.0593 62.0207V69.498H7.1572V38.4384ZM16.3601 38.4384H17.5104V61.4455H16.3601V38.4384ZM18.6608 38.4384H38.2169V53.9843C37.7221 53.6033 37.1158 53.3955 36.4913 53.393H24.9877C24.2252 53.3936 23.4941 53.6968 22.9549 54.236C22.4156 54.7752 22.1125 55.5064 22.1118 56.2689V67.7725C22.1118 68.4224 22.3373 69.0149 22.7031 69.498H19.8111V62.0207C19.8111 61.8681 19.7505 61.7218 19.6427 61.614C19.5348 61.5061 19.3885 61.4455 19.236 61.4455H18.6608V38.4384ZM24.9877 54.5434H36.4913C37.4427 54.5434 38.2169 55.3176 38.2169 56.2689V67.7725C38.2169 68.7238 37.4427 69.498 36.4913 69.498H24.9877C24.0364 69.498 23.2622 68.7238 23.2622 67.7725V56.2689C23.2622 55.3176 24.0364 54.5434 24.9877 54.5434ZM15.2097 62.5959H18.6608V69.498H15.2097V62.5959Z" fill="#BFBFBF"/>
</svg>
