<svg width="83.04" height="73.62" viewBox="0 0 84 74" fill="none" xmlns="http://www.w3.org/2000/svg">
	<path d="M41.6371 0.118044C41.5235 0.118044 41.4147 0.163141 41.3344 0.243414C41.2541 0.323687 41.209 0.432561 41.209 0.546084V5.27935H39.5071L39.4969 3.99181C39.496 3.87888 39.4505 3.77088 39.3703 3.69135C39.2901 3.61181 39.1818 3.56719 39.0688 3.56719H39.0654C39.0092 3.56764 38.9536 3.57915 38.9019 3.60108C38.8501 3.62301 38.8032 3.65491 38.7637 3.69498C38.7243 3.73504 38.6932 3.78248 38.6721 3.83459C38.651 3.88669 38.6403 3.94244 38.6408 3.99865L38.6545 5.71081V7.82276H38.2128C38.0992 7.82276 37.9904 7.86786 37.9101 7.94813C37.8298 8.02841 37.7847 8.13728 37.7847 8.2508C37.7847 8.36433 37.8298 8.4732 37.9101 8.55347C37.9904 8.63375 38.0992 8.67884 38.2128 8.67884H38.485L36.8636 13.8153H36.0726V12.5312C36.0726 12.4177 36.0275 12.3088 35.9472 12.2285C35.8669 12.1483 35.758 12.1032 35.6445 12.1032C35.531 12.1032 35.4221 12.1483 35.3418 12.2285C35.2616 12.3088 35.2165 12.4177 35.2165 12.5312V18.9518C35.2165 18.9689 35.225 18.9818 35.2267 18.998L33.524 24.3871C33.5197 24.4016 33.524 24.417 33.5214 24.4324C33.5154 24.4607 33.5043 24.4864 33.5043 24.5163V48.9146H14.6705V48.0833H15.1217C15.2352 48.0833 15.3441 48.0383 15.4244 47.958C15.5046 47.8777 15.5497 47.7688 15.5497 47.6553C15.5497 47.5418 15.5046 47.4329 15.4244 47.3526C15.3441 47.2724 15.2352 47.2273 15.1217 47.2273H14.5635L12.2795 40.3786H12.544C12.6576 40.3786 12.7664 40.3335 12.8467 40.2533C12.927 40.173 12.9721 40.0641 12.9721 39.9506C12.9721 39.8371 12.927 39.7282 12.8467 39.6479C12.7664 39.5676 12.6576 39.5225 12.544 39.5225H11.2582V35.6702C11.2582 35.5567 11.2131 35.4478 11.1328 35.3675C11.0526 35.2872 10.9437 35.2421 10.8302 35.2421C10.7167 35.2421 10.6078 35.2872 10.5275 35.3675C10.4472 35.4478 10.4021 35.5567 10.4021 35.6702V36.9543H6.12173V35.6702C6.12173 35.5567 6.07664 35.4478 5.99636 35.3675C5.91609 35.2872 5.80722 35.2421 5.69369 35.2421C5.58017 35.2421 5.4713 35.2872 5.39102 35.3675C5.31075 35.4478 5.26565 35.5567 5.26565 35.6702V39.5225H3.98667C3.87315 39.5225 3.76427 39.5676 3.684 39.6479C3.60373 39.7282 3.55863 39.8371 3.55863 39.9506C3.55863 40.0641 3.60373 40.173 3.684 40.2533C3.76427 40.3335 3.87315 40.3786 3.98667 40.3786H4.23664L1.9492 47.2273H1.40987C1.29635 47.2273 1.18747 47.2724 1.1072 47.3526C1.02693 47.4329 0.981828 47.5418 0.981828 47.6553C0.981828 47.7688 1.02693 47.8777 1.1072 47.958C1.18747 48.0383 1.29635 48.0833 1.40987 48.0833H1.82935V72.884H0.545228C0.431704 72.884 0.322831 72.9291 0.242558 73.0094C0.162284 73.0896 0.117188 73.1985 0.117188 73.312C0.117188 73.4256 0.162284 73.5344 0.242558 73.6147C0.322831 73.695 0.431704 73.7401 0.545228 73.7401H82.7289C82.8424 73.7401 82.9513 73.695 83.0316 73.6147C83.1119 73.5344 83.157 73.4256 83.157 73.312C83.157 73.1985 83.1119 73.0896 83.0316 73.0094C82.9513 72.9291 82.8424 72.884 82.7289 72.884H81.4448V48.0833H81.8728C81.9864 48.0833 82.0952 48.0383 82.1755 47.958C82.2558 47.8777 82.3009 47.7688 82.3009 47.6553C82.3009 47.5418 82.2558 47.4329 82.1755 47.3526C82.0952 47.2724 81.9864 47.2273 81.8728 47.2273H81.3335L79.0486 40.3786H79.3132C79.4267 40.3786 79.5356 40.3335 79.6158 40.2533C79.6961 40.173 79.7412 40.0641 79.7412 39.9506C79.7412 39.8371 79.6961 39.7282 79.6158 39.6479C79.5356 39.5676 79.4267 39.5225 79.3132 39.5225H78.0273V35.6702C78.0273 35.5567 77.9822 35.4478 77.902 35.3675C77.8217 35.2872 77.7128 35.2421 77.5993 35.2421C77.4858 35.2421 77.3769 35.2872 77.2966 35.3675C77.2163 35.4478 77.1712 35.5567 77.1712 35.6702V36.9543H72.8908V35.6702C72.8908 35.5567 72.8457 35.4478 72.7655 35.3675C72.6852 35.2872 72.5763 35.2421 72.4628 35.2421C72.3493 35.2421 72.2404 35.2872 72.1601 35.3675C72.0799 35.4478 72.0348 35.5567 72.0348 35.6702V39.5225H70.7558C70.6423 39.5225 70.5334 39.5676 70.4531 39.6479C70.3728 39.7282 70.3277 39.8371 70.3277 39.9506C70.3277 40.0641 70.3728 40.173 70.4531 40.2533C70.5334 40.3335 70.6423 40.3786 70.7558 40.3786H71.004L68.726 47.2016H68.1773C68.0637 47.2016 67.9549 47.2467 67.8746 47.327C67.7943 47.4072 67.7492 47.5161 67.7492 47.6296C67.7492 47.7431 67.7943 47.852 67.8746 47.9323C67.9549 48.0126 68.0637 48.0577 68.1773 48.0577H68.6053V48.9137H49.7715V24.5155C49.7715 24.4864 49.7604 24.4607 49.7544 24.4324C49.7519 24.417 49.757 24.4016 49.7519 24.3871L48.0491 18.998C48.0508 18.9818 48.0577 18.9681 48.0577 18.9518V12.5312C48.0577 12.4177 48.0126 12.3088 47.9323 12.2285C47.852 12.1483 47.7432 12.1032 47.6296 12.1032C47.5161 12.1032 47.4072 12.1483 47.327 12.2285C47.2467 12.3088 47.2016 12.4177 47.2016 12.5312V13.8153H46.4123L44.7909 8.67884H45.0614C45.1749 8.67884 45.2838 8.63375 45.3641 8.55347C45.4443 8.4732 45.4894 8.36433 45.4894 8.2508C45.4894 8.13728 45.4443 8.02841 45.3641 7.94813C45.2838 7.86786 45.1749 7.82276 45.0614 7.82276H44.647V5.70397L44.6334 3.99181C44.6325 3.87888 44.587 3.77088 44.5068 3.69135C44.4266 3.61181 44.3182 3.56719 44.2053 3.56719H44.2019C44.1457 3.56764 44.0901 3.57915 44.0383 3.60108C43.9866 3.62301 43.9396 3.65491 43.9002 3.69498C43.8608 3.73504 43.8296 3.78248 43.8085 3.83459C43.7874 3.88669 43.7768 3.94244 43.7773 3.99865L43.7875 5.27935H42.0651V0.545227C42.0651 0.431704 42.02 0.322831 41.9397 0.242558C41.8595 0.162285 41.7506 0.117188 41.6371 0.117188V0.118044ZM39.5106 6.13543H40.353V7.82191H39.5106V6.13543ZM41.209 6.13543H42.0651V7.82191H41.209V6.13543ZM42.9212 6.13543H43.791V7.82191H42.9212V6.13543ZM39.3745 8.70367H43.9014L48.7579 24.0874H46.3472V21.9472C46.3472 21.8337 46.3021 21.7248 46.2219 21.6446C46.1416 21.5643 46.0327 21.5192 45.9192 21.5192H44.4347L42.042 14.9531C42.0119 14.8709 41.9576 14.7999 41.8862 14.7495C41.8147 14.699 41.7297 14.6715 41.6422 14.6705H41.6388C41.5522 14.6705 41.4676 14.6968 41.3962 14.7458C41.3248 14.7949 41.27 14.8645 41.239 14.9453L38.705 21.52H37.3584C37.2449 21.52 37.136 21.5651 37.0557 21.6454C36.9754 21.7257 36.9303 21.8346 36.9303 21.9481V24.0883H34.5196L39.3745 8.70367ZM36.0726 14.6697H36.5948L36.0726 16.3168V14.6697ZM46.682 14.6697H47.2016V16.3168L46.682 14.6697ZM41.6268 16.3159L43.7328 22.0928C43.7328 22.0953 43.7353 22.0945 43.737 22.097C43.7653 22.1707 43.8141 22.2297 43.8757 22.2777C43.8894 22.2879 43.9014 22.2982 43.916 22.3068C43.9808 22.3489 44.0561 22.372 44.1334 22.3736H45.4894V24.5138C45.4894 24.6273 45.5345 24.7362 45.6148 24.8164C45.6951 24.8967 45.804 24.9418 45.9175 24.9418H48.9138V25.0206C48.7767 24.9699 48.6319 24.9432 48.4857 24.9418C48.1561 24.9418 47.8573 25.0702 47.6296 25.2757C47.3957 25.0619 47.0905 24.9429 46.7736 24.9418C46.0656 24.9418 45.4894 25.5179 45.4894 26.2259V27.082C45.4894 27.1955 45.5345 27.3044 45.6148 27.3847C45.6951 27.4649 45.804 27.51 45.9175 27.51C46.031 27.51 46.1399 27.4649 46.2201 27.3847C46.3004 27.3044 46.3455 27.1955 46.3455 27.082V26.2259C46.3455 25.9905 46.5381 25.7979 46.7736 25.7979C47.009 25.7979 47.2016 25.9905 47.2016 26.2259V27.082C47.2016 27.1955 47.2467 27.3044 47.327 27.3847C47.4072 27.4649 47.5161 27.51 47.6296 27.51C47.7432 27.51 47.852 27.4649 47.9323 27.3847C48.0126 27.3044 48.0577 27.1955 48.0577 27.082V26.2259C48.0577 25.9905 48.2503 25.7979 48.4857 25.7979C48.7211 25.7979 48.9138 25.9905 48.9138 26.2259V31.7904H34.3604V26.2259C34.3604 25.9905 34.553 25.7979 34.7884 25.7979C35.0239 25.7979 35.2165 25.9905 35.2165 26.2259V27.082C35.2165 27.1955 35.2616 27.3044 35.3418 27.3847C35.4221 27.4649 35.531 27.51 35.6445 27.51C35.758 27.51 35.8669 27.4649 35.9472 27.3847C36.0275 27.3044 36.0726 27.1955 36.0726 27.082V26.2259C36.0726 25.9905 36.2652 25.7979 36.5006 25.7979C36.736 25.7979 36.9286 25.9905 36.9286 26.2259V27.082C36.9286 27.1955 36.9737 27.3044 37.054 27.3847C37.1343 27.4649 37.2431 27.51 37.3567 27.51C37.4702 27.51 37.5791 27.4649 37.6593 27.3847C37.7396 27.3044 37.7847 27.1955 37.7847 27.082V26.2259C37.7843 25.8886 37.6512 25.565 37.4141 25.325C37.177 25.085 36.855 24.948 36.5177 24.9435H37.3567C37.4702 24.9435 37.5791 24.8984 37.6593 24.8181C37.7396 24.7379 37.7847 24.629 37.7847 24.5155V22.3753H38.9986L39.0055 22.3736C39.0269 22.3727 39.0466 22.3641 39.0671 22.3599C39.1393 22.3492 39.2074 22.32 39.2649 22.2752C39.3223 22.2303 39.3672 22.1713 39.395 22.1039C39.395 22.1022 39.395 22.1005 39.3967 22.0988L41.6268 16.3151V16.3159ZM34.3604 24.9444H34.7799C34.6367 24.9463 34.4949 24.9724 34.3604 25.0214V24.9444ZM34.8056 24.9444H36.4835C36.1727 24.9492 35.8744 25.0673 35.6445 25.2765C35.4147 25.0673 35.1163 24.9492 34.8056 24.9444ZM41.6371 24.9444C39.9848 24.9444 38.6408 26.2884 38.6408 27.9406C38.6408 29.5929 39.9857 30.9369 41.6371 30.9369C43.2893 30.9369 44.6334 29.5929 44.6334 27.9406C44.6334 26.2884 43.2893 24.9444 41.6371 24.9444ZM41.6371 25.8004C42.8176 25.8004 43.7773 26.7593 43.7773 27.9406C43.7773 29.1212 42.8176 30.0808 41.6371 30.0808C41.0696 30.0804 40.5255 29.8548 40.1242 29.4535C39.723 29.0522 39.4973 28.5081 39.4969 27.9406C39.4969 26.7593 40.4565 25.8004 41.6371 25.8004ZM41.6371 26.6565C41.5235 26.6565 41.4147 26.7016 41.3344 26.7819C41.2541 26.8622 41.209 26.971 41.209 27.0846V27.9406C41.209 28.0542 41.2541 28.163 41.3344 28.2433C41.4147 28.3236 41.5235 28.3687 41.6371 28.3687C41.6448 28.3687 41.6525 28.3653 41.6602 28.3653C41.6687 28.3653 41.6747 28.3687 41.6824 28.3687H42.9212C43.0347 28.3687 43.1436 28.3236 43.2239 28.2433C43.3041 28.163 43.3492 28.0542 43.3492 27.9406C43.3492 27.8271 43.3041 27.7182 43.2239 27.638C43.1436 27.5577 43.0347 27.5126 42.9212 27.5126H42.0651V27.0846C42.0651 26.971 42.02 26.8622 41.9397 26.7819C41.8595 26.7016 41.7506 26.6565 41.6371 26.6565ZM34.3604 32.6491H38.6408V33.9332C38.6408 34.095 38.7332 34.2431 38.8779 34.3159L40.353 35.053V36.5014C40.353 36.615 40.398 36.7238 40.4783 36.8041C40.5586 36.8844 40.6675 36.9295 40.781 36.9295H41.209V38.6416C41.0955 38.6416 40.9866 38.6867 40.9064 38.767C40.8261 38.8473 40.781 38.9562 40.781 39.0697C40.781 39.1832 40.8261 39.2921 40.9064 39.3724C40.9866 39.4526 41.0955 39.4977 41.209 39.4977H42.0651C42.1786 39.4977 42.2875 39.4526 42.3678 39.3724C42.4481 39.2921 42.4932 39.1832 42.4932 39.0697C42.4932 38.9562 42.4481 38.8473 42.3678 38.767C42.2875 38.6867 42.1786 38.6416 42.0651 38.6416V36.9295H42.4932C42.6067 36.9295 42.7155 36.8844 42.7958 36.8041C42.8761 36.7238 42.9212 36.615 42.9212 36.5014V35.053L44.3979 34.3159C44.4688 34.2802 44.5283 34.2255 44.5699 34.1579C44.6115 34.0903 44.6334 34.0125 44.6334 33.9332V32.6491H48.9138V42.922H45.4894V41.2099C45.4894 40.2656 44.7215 39.4977 43.7773 39.4977C42.833 39.4977 42.0651 40.2656 42.0651 41.2099V42.922H41.209V41.2099C41.209 40.2656 40.4411 39.4977 39.4969 39.4977C38.5526 39.4977 37.7847 40.2656 37.7847 41.2099V42.922H34.3604V32.6491ZM39.4969 32.6508H43.7773V33.6695L42.3022 34.4058C42.2311 34.4414 42.1712 34.4962 42.1293 34.5639C42.0875 34.6316 42.0652 34.7097 42.0651 34.7893V36.0734H41.209V34.7893C41.2093 34.7098 41.1874 34.6318 41.1458 34.5641C41.1042 34.4963 41.0446 34.4415 40.9736 34.4058L39.4969 33.6695V32.6508ZM6.12345 37.8095H6.96583V39.496H6.12345V37.8095ZM7.82191 37.8095H8.67799V39.496H7.82191V37.8095ZM9.53407 37.8095H10.4038V39.496H9.53407V37.8095ZM72.8908 37.8095H73.7349V39.496H72.8908V37.8095ZM74.591 37.8095H75.4471V39.496H74.591V37.8095ZM76.3015 37.8095H77.1712V39.496H76.3015V37.8095ZM39.4969 40.3529C39.7239 40.3529 39.9417 40.4431 40.1022 40.6037C40.2628 40.7642 40.353 40.982 40.353 41.209V47.2016H38.6408V41.209C38.6408 40.982 38.731 40.7642 38.8915 40.6037C39.0521 40.4431 39.2698 40.3529 39.4969 40.3529ZM43.7773 40.3529C44.0043 40.3529 44.2221 40.4431 44.3826 40.6037C44.5432 40.7642 44.6334 40.982 44.6334 41.209V47.2016H42.9212V41.209C42.9212 40.982 43.0114 40.7642 43.1719 40.6037C43.3325 40.4431 43.5502 40.3529 43.7773 40.3529ZM5.13981 40.3786H11.3806L13.6621 47.2273H11.0108L8.56755 44.7618C8.52817 44.7214 8.48119 44.6893 8.42931 44.6673C8.37744 44.6453 8.32172 44.6337 8.26536 44.6333H8.26365C8.20732 44.6332 8.15152 44.6443 8.0995 44.6659C8.04748 44.6875 8.00026 44.7192 7.96059 44.7592L5.50364 47.2273H2.85322L5.13981 40.3786ZM71.9072 40.3786H78.148L80.4295 47.2273H77.7782L75.335 44.7618C75.2956 44.7214 75.2486 44.6893 75.1967 44.6673C75.1448 44.6453 75.0891 44.6337 75.0328 44.6333H75.0311C74.9747 44.6332 74.9189 44.6443 74.8669 44.6659C74.8149 44.6875 74.7677 44.7192 74.728 44.7592L72.2736 47.2273H70.8705C70.8303 47.2153 70.7892 47.2016 70.7455 47.2016H69.63L71.9072 40.3786ZM34.3604 43.7764H37.7847V47.2007H37.3567C37.2431 47.2007 37.1343 47.2458 37.054 47.3261C36.9737 47.4064 36.9286 47.5152 36.9286 47.6288V49.3409C36.9286 49.4545 36.9737 49.5633 37.054 49.6436C37.1343 49.7239 37.2431 49.769 37.3567 49.769H45.9175C46.031 49.769 46.1399 49.7239 46.2201 49.6436C46.3004 49.5633 46.3455 49.4545 46.3455 49.3409V47.6288C46.3455 47.5152 46.3004 47.4064 46.2201 47.3261C46.1399 47.2458 46.031 47.2007 45.9175 47.2007H45.4894V43.7764H48.9138V60.0419H45.4894V53.6213C45.4894 52.4417 44.5298 51.4811 43.3492 51.4811C42.6464 51.4811 42.0274 51.827 41.6371 52.3509C41.4394 52.0823 41.1816 51.8638 40.8843 51.7129C40.5869 51.562 40.2584 51.4829 39.9249 51.482C39.3574 51.4824 38.8133 51.7081 38.4121 52.1093C38.0108 52.5106 37.7852 53.0547 37.7847 53.6222V60.0428H34.3604V43.7764ZM41.209 43.7764H42.0651V44.6325H41.209V43.7764ZM41.209 45.4886H42.0651V47.2007H41.209V45.4886ZM8.26193 45.6701L10.5271 47.9558C10.567 47.996 10.6145 48.028 10.6668 48.0497C10.7191 48.0714 10.7752 48.0826 10.8319 48.0825H13.8145V48.9917C13.6773 48.9412 13.5325 48.9149 13.3864 48.9137C13.0568 48.9137 12.7581 49.0422 12.5303 49.2476C12.2964 49.0338 11.9912 48.9148 11.6743 48.9137C10.9663 48.9137 10.3901 49.4899 10.3901 50.1979V51.0539C10.3901 51.1675 10.4352 51.2763 10.5155 51.3566C10.5958 51.4369 10.7047 51.482 10.8182 51.482C10.9317 51.482 11.0406 51.4369 11.1209 51.3566C11.2011 51.2763 11.2462 51.1675 11.2462 51.0539V50.1979C11.2462 49.9624 11.4388 49.7698 11.6743 49.7698C11.9097 49.7698 12.1023 49.9624 12.1023 50.1979V51.0539C12.1023 51.1675 12.1474 51.2763 12.2277 51.3566C12.308 51.4369 12.4168 51.482 12.5303 51.482C12.6439 51.482 12.7527 51.4369 12.833 51.3566C12.9133 51.2763 12.9584 51.1675 12.9584 51.0539V50.1979C12.9584 49.9624 13.151 49.7698 13.3864 49.7698C13.6219 49.7698 13.8145 49.9624 13.8145 50.1979V72.884H12.0595V69.8791C12.0595 67.7552 10.3302 66.0268 8.20714 66.0268C7.18578 66.0279 6.20658 66.4342 5.48437 67.1564C4.76215 67.8786 4.35592 68.8578 4.35478 69.8791V72.884H2.68543V50.1979C2.68543 49.9624 2.87805 49.7698 3.11347 49.7698C3.34889 49.7698 3.54151 49.9624 3.54151 50.1979V51.0539C3.54151 51.1675 3.58661 51.2763 3.66688 51.3566C3.74715 51.4369 3.85602 51.482 3.96955 51.482C4.08307 51.482 4.19195 51.4369 4.27222 51.3566C4.35249 51.2763 4.39759 51.1675 4.39759 51.0539V50.1979C4.39759 49.9624 4.59021 49.7698 4.82563 49.7698C5.06105 49.7698 5.25367 49.9624 5.25367 50.1979V51.0539C5.25367 51.1675 5.29877 51.2763 5.37904 51.3566C5.45931 51.4369 5.56818 51.482 5.68171 51.482C5.79523 51.482 5.90411 51.4369 5.98438 51.3566C6.06465 51.2763 6.10975 51.1675 6.10975 51.0539V50.1979C6.10975 49.4899 5.53361 48.9137 4.82563 48.9137C4.49604 48.9137 4.19727 49.0422 3.96955 49.2476C3.73557 49.0338 3.4304 48.9148 3.11347 48.9137C2.9628 48.9137 2.81983 48.9437 2.68543 48.9917V48.0825H5.68171C5.73815 48.0825 5.79403 48.0714 5.84618 48.0498C5.89832 48.0282 5.9457 47.9966 5.98562 47.9567L8.26193 45.6701ZM75.0293 45.6701L77.2945 47.9558C77.3344 47.996 77.3819 48.028 77.4342 48.0497C77.4865 48.0714 77.5426 48.0826 77.5993 48.0825H80.5887V48.9917C80.4516 48.9412 80.3068 48.9149 80.1607 48.9137C79.8311 48.9137 79.5323 49.0422 79.3046 49.2476C79.0706 49.0338 78.7654 48.9148 78.4485 48.9137C77.7405 48.9137 77.1644 49.4899 77.1644 50.1979V51.0539C77.1644 51.1675 77.2095 51.2763 77.2898 51.3566C77.37 51.4369 77.4789 51.482 77.5924 51.482C77.706 51.482 77.8148 51.4369 77.8951 51.3566C77.9754 51.2763 78.0205 51.1675 78.0205 51.0539V50.1979C78.0205 49.9624 78.2131 49.7698 78.4485 49.7698C78.6839 49.7698 78.8766 49.9624 78.8766 50.1979V51.0539C78.8766 51.1675 78.9217 51.2763 79.0019 51.3566C79.0822 51.4369 79.1911 51.482 79.3046 51.482C79.4181 51.482 79.527 51.4369 79.6073 51.3566C79.6875 51.2763 79.7326 51.1675 79.7326 51.0539V50.1979C79.7326 49.9624 79.9253 49.7698 80.1607 49.7698C80.3961 49.7698 80.5887 49.9624 80.5887 50.1979V72.884H78.8337V69.8791C78.8337 67.7552 77.1045 66.0268 74.9814 66.0268C73.96 66.0279 72.9808 66.4342 72.2586 67.1564C71.5364 67.8786 71.1302 68.8578 71.129 69.8791V72.884H69.4614V50.1979C69.4614 49.9624 69.654 49.7698 69.8894 49.7698C70.1248 49.7698 70.3175 49.9624 70.3175 50.1979V51.0539C70.3175 51.1675 70.3626 51.2763 70.4428 51.3566C70.5231 51.4369 70.632 51.482 70.7455 51.482C70.859 51.482 70.9679 51.4369 71.0482 51.3566C71.1284 51.2763 71.1735 51.1675 71.1735 51.0539V50.1979C71.1735 49.9624 71.3662 49.7698 71.6016 49.7698C71.837 49.7698 72.0296 49.9624 72.0296 50.1979V51.0539C72.0296 51.1675 72.0747 51.2763 72.155 51.3566C72.2353 51.4369 72.3441 51.482 72.4577 51.482C72.5712 51.482 72.6801 51.4369 72.7603 51.3566C72.8406 51.2763 72.8857 51.1675 72.8857 51.0539V50.1979C72.8857 49.4899 72.3096 48.9137 71.6016 48.9137C71.272 48.9137 70.9732 49.0422 70.7455 49.2476C70.5115 49.0338 70.2064 48.9148 69.8894 48.9137C69.7388 48.9137 69.5958 48.9437 69.4614 48.9917V48.0825H72.4508C72.5647 48.0825 72.6734 48.0371 72.7539 47.9567L75.0293 45.6701ZM8.24995 47.2024C7.54197 47.2024 6.96583 47.7786 6.96583 48.4866V51.0548C6.96583 51.1683 7.01092 51.2772 7.0912 51.3575C7.17147 51.4377 7.28034 51.4828 7.39387 51.4828H9.10603C9.21955 51.4828 9.32843 51.4377 9.4087 51.3575C9.48897 51.2772 9.53407 51.1683 9.53407 51.0548V48.4866C9.53407 47.7786 8.95793 47.2024 8.24995 47.2024ZM75.0242 47.2024C74.3162 47.2024 73.7401 47.7786 73.7401 48.4866V51.0548C73.7401 51.1683 73.7852 51.2772 73.8654 51.3575C73.9457 51.4377 74.0546 51.4828 74.1681 51.4828H75.8803C75.9938 51.4828 76.1027 51.4377 76.1829 51.3575C76.2632 51.2772 76.3083 51.1683 76.3083 51.0548V48.4866C76.3083 47.7786 75.7322 47.2024 75.0242 47.2024ZM8.24995 48.0585C8.48537 48.0585 8.67799 48.2511 8.67799 48.4866V50.6268H7.82191V48.4866C7.82191 48.2511 8.01453 48.0585 8.24995 48.0585ZM37.7847 48.0585H38.6408V48.9146H37.7847V48.0585ZM39.4969 48.0585H40.353V48.9146H39.4969V48.0585ZM41.209 48.0585H42.0651V48.9146H41.209V48.0585ZM42.9212 48.0585H43.7773V48.9146H42.9212V48.0585ZM44.6334 48.0585H45.4894V48.9146H44.6334V48.0585ZM75.0242 48.0585C75.2596 48.0585 75.4522 48.2511 75.4522 48.4866V50.6268H74.5962V48.4866C74.5962 48.2511 74.7888 48.0585 75.0242 48.0585ZM14.6705 49.7707H33.5043V53.195H14.6705V49.7707ZM49.7698 49.7707H68.6036V53.195H49.7698V49.7707ZM39.9249 52.3389C40.6329 52.3389 41.209 52.9151 41.209 53.623V60.0436H38.6408V53.623C38.6408 52.9151 39.2169 52.3389 39.9249 52.3389ZM43.3492 52.3389C44.0572 52.3389 44.6334 52.9151 44.6334 53.623V60.0436H42.0651V53.623C42.0651 52.9151 42.6413 52.3389 43.3492 52.3389ZM8.24995 54.0425C6.49242 54.0425 5.02338 55.2308 4.56281 56.8428C4.53528 56.893 4.51838 56.9484 4.51316 57.0054C4.44467 57.2922 4.3993 57.5867 4.3993 57.8949V63.8874C4.39844 64.1229 4.58935 64.3155 4.82563 64.3155H11.6743C11.7878 64.3155 11.8967 64.2704 11.9769 64.1901C12.0572 64.1098 12.1023 64.001 12.1023 63.8874V57.8949C12.1023 57.5841 12.0561 57.2845 11.9867 56.996C11.9814 56.943 11.9657 56.8915 11.9405 56.8445C11.4808 55.2316 10.0083 54.0425 8.24995 54.0425ZM75.0259 54.0425C73.2684 54.0425 71.7985 55.2308 71.3371 56.8428C71.3101 56.8931 71.2938 56.9485 71.2891 57.0054C71.2206 57.2922 71.1735 57.5867 71.1735 57.8949V63.8874C71.1735 64.001 71.2186 64.1098 71.2989 64.1901C71.3792 64.2704 71.4881 64.3155 71.6016 64.3155H78.4502C78.5638 64.3155 78.6726 64.2704 78.7529 64.1901C78.8332 64.1098 78.8783 64.001 78.8783 63.8874V57.8949C78.8783 57.5841 78.832 57.2862 78.7627 56.9969C78.756 56.9436 78.7398 56.892 78.7148 56.8445C78.255 55.2316 76.7852 54.0425 75.0259 54.0425ZM14.6705 54.0511H33.5043V60.8997H32.6482V57.2614C32.6482 56.4353 31.9762 55.7632 31.1501 55.7632C30.7306 55.7632 30.3522 55.9379 30.08 56.2161C29.9411 56.0726 29.7749 55.9585 29.591 55.8806C29.4072 55.8026 29.2096 55.7624 29.0099 55.7624C28.1838 55.7624 27.5118 56.4353 27.5118 57.2605V60.8989H26.6557V57.2605C26.6557 56.4353 25.9836 55.7624 25.1575 55.7624C24.7381 55.7624 24.3597 55.9379 24.0874 56.2161C23.9486 56.0726 23.7823 55.9585 23.5985 55.8806C23.4146 55.8026 23.217 55.7624 23.0173 55.7624C22.1912 55.7624 21.5192 56.4353 21.5192 57.2605V60.8989H20.6631V57.2605C20.6631 56.4353 19.9911 55.7624 19.165 55.7624C18.7455 55.7624 18.3671 55.9379 18.0949 56.2161C17.956 56.0726 17.7897 55.9585 17.6059 55.8806C17.4221 55.8026 17.2244 55.7624 17.0248 55.7624C16.1987 55.7624 15.5266 56.4353 15.5266 57.2605V60.8989H14.6705V54.0511ZM49.7698 54.0511H68.6036V60.8997H67.7475V57.2614C67.7475 56.4353 67.0755 55.7632 66.2494 55.7632C65.8299 55.7632 65.4515 55.9379 65.1793 56.2161C65.0404 56.0726 64.8741 55.9585 64.6903 55.8806C64.5065 55.8026 64.3088 55.7624 64.1092 55.7624C63.2831 55.7624 62.611 56.4353 62.611 57.2605V60.8989H61.755V57.2605C61.755 56.4353 61.0829 55.7624 60.2568 55.7624C59.8373 55.7624 59.459 55.9379 59.1867 56.2161C59.0479 56.0726 58.8816 55.9585 58.6977 55.8806C58.5139 55.8026 58.3163 55.7624 58.1166 55.7624C57.2905 55.7624 56.6185 56.4353 56.6185 57.2605V60.8989H55.7624V57.2605C55.7624 56.4353 55.0904 55.7624 54.2643 55.7624C53.8448 55.7624 53.4664 55.9379 53.1942 56.2161C53.0553 56.0726 52.889 55.9585 52.7052 55.8806C52.5214 55.8026 52.3237 55.7624 52.1241 55.7624C51.2979 55.7624 50.6259 56.4353 50.6259 57.2605V60.8989H49.7698V54.0511ZM8.24995 54.8986C9.44418 54.8986 10.4706 55.6057 10.9517 56.6193H5.54987C5.79055 56.1061 6.17215 55.6718 6.65021 55.3671C7.12826 55.0625 7.68307 54.9 8.24995 54.8986ZM75.0242 54.8986C76.2184 54.8986 77.2449 55.6057 77.726 56.6193H72.3241C72.5648 56.1061 72.9464 55.6718 73.4245 55.3671C73.9025 55.0625 74.4573 54.9 75.0242 54.8986ZM17.0248 56.6193C17.3783 56.6193 17.6668 56.9078 17.6668 57.2614V60.8997H16.3827V57.2614C16.3827 56.9078 16.6712 56.6193 17.0248 56.6193ZM19.165 56.6193C19.5185 56.6193 19.807 56.9078 19.807 57.2614V60.8997H18.5229V57.2614C18.5229 56.9078 18.8114 56.6193 19.165 56.6193ZM23.0173 56.6193C23.3709 56.6193 23.6594 56.9078 23.6594 57.2614V60.8997H22.3753V57.2614C22.3753 56.9078 22.6638 56.6193 23.0173 56.6193ZM25.1575 56.6193C25.5111 56.6193 25.7996 56.9078 25.7996 57.2614V60.8997H24.5155V57.2614C24.5155 56.9078 24.804 56.6193 25.1575 56.6193ZM29.0099 56.6193C29.3635 56.6193 29.652 56.9078 29.652 57.2614V60.8997H28.3678V57.2614C28.3678 56.9078 28.6563 56.6193 29.0099 56.6193ZM31.1501 56.6193C31.5037 56.6193 31.7922 56.9078 31.7922 57.2614V60.8997H30.508V57.2614C30.508 56.9078 30.7965 56.6193 31.1501 56.6193ZM52.1241 56.6193C52.4776 56.6193 52.7661 56.9078 52.7661 57.2614V60.8997H51.482V57.2614C51.482 56.9078 51.7705 56.6193 52.1241 56.6193ZM54.2643 56.6193C54.6178 56.6193 54.9063 56.9078 54.9063 57.2614V60.8997H53.6222V57.2614C53.6222 56.9078 53.9107 56.6193 54.2643 56.6193ZM58.1166 56.6193C58.4702 56.6193 58.7587 56.9078 58.7587 57.2614V60.8997H57.4746V57.2614C57.4746 56.9078 57.7631 56.6193 58.1166 56.6193ZM60.2568 56.6193C60.6104 56.6193 60.8989 56.9078 60.8989 57.2614V60.8997H59.6148V57.2614C59.6148 56.9078 59.9033 56.6193 60.2568 56.6193ZM64.1092 56.6193C64.4627 56.6193 64.7512 56.9078 64.7512 57.2614V60.8997H63.4671V57.2614C63.4671 56.9078 63.7556 56.6193 64.1092 56.6193ZM66.2494 56.6193C66.6029 56.6193 66.8914 56.9078 66.8914 57.2614V60.8997H65.6073V57.2614C65.6073 56.9078 65.8958 56.6193 66.2494 56.6193ZM5.29647 57.4754H6.10975V58.3315H5.25367V57.8949C5.25367 57.7511 5.27764 57.6124 5.29647 57.4754ZM6.96583 57.4754H7.82191V58.3315H6.96583V57.4754ZM8.67799 57.4754H9.53407V58.3315H8.67799V57.4754ZM10.3901 57.4754H11.2043C11.2248 57.6124 11.2462 57.7511 11.2462 57.8949V58.3315H10.3901V57.4754ZM72.0707 57.4754H72.884V58.3315H72.0279V57.8949C72.0279 57.7511 72.0519 57.6124 72.0707 57.4754ZM73.7401 57.4754H74.5962V58.3315H73.7401V57.4754ZM75.4522 57.4754H76.3083V58.3315H75.4522V57.4754ZM77.1644 57.4754H77.9785C77.9982 57.6124 78.0205 57.7519 78.0205 57.8949V58.3315H77.1644V57.4754ZM5.25367 59.1876H6.10975V63.4594H5.25367V59.1876ZM6.96583 59.1876H7.82191V63.4594H6.96583V59.1876ZM8.67799 59.1876H9.53407V63.4594H8.67799V59.1876ZM10.3901 59.1876H11.2462V63.4594H10.3901V59.1876ZM72.0279 59.1876H72.884V63.4594H72.0279V59.1876ZM73.7401 59.1876H74.5962V63.4594H73.7401V59.1876ZM75.4522 59.1876H76.3083V63.4594H75.4522V59.1876ZM77.1644 59.1876H78.0205V63.4594H77.1644V59.1876ZM34.3621 60.8997H48.9138V72.8848H46.3027V67.3118C46.3027 64.7161 44.189 62.6033 41.5943 62.6033C40.346 62.6049 39.1493 63.1015 38.2667 63.9841C37.384 64.8668 36.8874 66.0635 36.8858 67.3118V72.8848H34.3621V60.8997ZM14.6705 61.7558H33.5043V72.8848H32.6482V69.4554C32.6482 68.0394 31.4959 66.8871 30.08 66.8871C28.664 66.8871 27.5118 68.0394 27.5118 69.4554V72.8848H26.6557V69.4554C26.6557 68.0394 25.5034 66.8871 24.0874 66.8871C22.6715 66.8871 21.5192 68.0394 21.5192 69.4554V72.8848H20.6631V69.4554C20.6631 68.0394 19.5108 66.8871 18.0949 66.8871C16.6789 66.8871 15.5266 68.0394 15.5266 69.4554V72.8848H14.6705V61.7558ZM49.7698 61.7558H68.6036V72.8848H67.7475V69.4554C67.7475 68.0394 66.5952 66.8871 65.1793 66.8871C63.7633 66.8871 62.611 68.0394 62.611 69.4554V72.8848H61.755V69.4554C61.755 68.0394 60.6027 66.8871 59.1867 66.8871C57.7708 66.8871 56.6185 68.0394 56.6185 69.4554V72.8848H55.7624V69.4554C55.7624 68.0394 54.6101 66.8871 53.1942 66.8871C51.7782 66.8871 50.6259 68.0394 50.6259 69.4554V72.8848H49.7698V61.7558ZM15.9547 62.6033C15.8411 62.6033 15.7323 62.6484 15.652 62.7287C15.5717 62.809 15.5266 62.9178 15.5266 63.0314V65.1716C15.5266 65.2851 15.5717 65.394 15.652 65.4742C15.7323 65.5545 15.8411 65.5996 15.9547 65.5996H20.2351C20.3486 65.5996 20.4575 65.5545 20.5377 65.4742C20.618 65.394 20.6631 65.2851 20.6631 65.1716V63.0314C20.6631 62.9178 20.618 62.809 20.5377 62.7287C20.4575 62.6484 20.3486 62.6033 20.2351 62.6033H15.9547ZM21.9472 62.6033C21.8337 62.6033 21.7248 62.6484 21.6446 62.7287C21.5643 62.809 21.5192 62.9178 21.5192 63.0314V65.1716C21.5192 65.2851 21.5643 65.394 21.6446 65.4742C21.7248 65.5545 21.8337 65.5996 21.9472 65.5996H26.2276C26.3412 65.5996 26.45 65.5545 26.5303 65.4742C26.6106 65.394 26.6557 65.2851 26.6557 65.1716V63.0314C26.6557 62.9178 26.6106 62.809 26.5303 62.7287C26.45 62.6484 26.3412 62.6033 26.2276 62.6033H21.9472ZM27.9398 62.6033C27.8263 62.6033 27.7174 62.6484 27.6371 62.7287C27.5568 62.809 27.5118 62.9178 27.5118 63.0314V65.1716C27.5118 65.2851 27.5568 65.394 27.6371 65.4742C27.7174 65.5545 27.8263 65.5996 27.9398 65.5996H32.2202C32.3337 65.5996 32.4426 65.5545 32.5229 65.4742C32.6031 65.394 32.6482 65.2851 32.6482 65.1716V63.0314C32.6482 62.9178 32.6031 62.809 32.5229 62.7287C32.4426 62.6484 32.3337 62.6033 32.2202 62.6033H27.9398ZM51.054 62.6033C50.9404 62.6033 50.8316 62.6484 50.7513 62.7287C50.671 62.809 50.6259 62.9178 50.6259 63.0314V65.1716C50.6259 65.2851 50.671 65.394 50.7513 65.4742C50.8316 65.5545 50.9404 65.5996 51.054 65.5996H55.3344C55.4479 65.5996 55.5568 65.5545 55.637 65.4742C55.7173 65.394 55.7624 65.2851 55.7624 65.1716V63.0314C55.7624 62.9178 55.7173 62.809 55.637 62.7287C55.5568 62.6484 55.4479 62.6033 55.3344 62.6033H51.054ZM57.0465 62.6033C56.933 62.6033 56.8241 62.6484 56.7438 62.7287C56.6636 62.809 56.6185 62.9178 56.6185 63.0314V65.1716C56.6185 65.2851 56.6636 65.394 56.7438 65.4742C56.8241 65.5545 56.933 65.5996 57.0465 65.5996H61.3269C61.4404 65.5996 61.5493 65.5545 61.6296 65.4742C61.7099 65.394 61.755 65.2851 61.755 65.1716V63.0314C61.755 62.9178 61.7099 62.809 61.6296 62.7287C61.5493 62.6484 61.4404 62.6033 61.3269 62.6033H57.0465ZM63.0391 62.6033C62.9256 62.6033 62.8167 62.6484 62.7364 62.7287C62.6561 62.809 62.611 62.9178 62.611 63.0314V65.1716C62.611 65.2851 62.6561 65.394 62.7364 65.4742C62.8167 65.5545 62.9256 65.5996 63.0391 65.5996H67.3195C67.433 65.5996 67.5419 65.5545 67.6221 65.4742C67.7024 65.394 67.7475 65.2851 67.7475 65.1716V63.0314C67.7475 62.9178 67.7024 62.809 67.6221 62.7287C67.5419 62.6484 67.433 62.6033 67.3195 62.6033H63.0391ZM16.3827 63.4594H17.6668V64.7435H16.3827V63.4594ZM18.5229 63.4594H19.807V64.7435H18.5229V63.4594ZM22.3753 63.4594H23.6594V64.7435H22.3753V63.4594ZM24.5155 63.4594H25.7996V64.7435H24.5155V63.4594ZM28.3678 63.4594H29.652V64.7435H28.3678V63.4594ZM30.508 63.4594H31.7922V64.7435H30.508V63.4594ZM41.5943 63.4594C43.7174 63.4594 45.4466 65.1878 45.4466 67.3118V72.8763H37.7419V67.3118C37.7419 65.1878 39.4695 63.4594 41.5943 63.4594ZM51.482 63.4594H52.7661V64.7435H51.482V63.4594ZM53.6222 63.4594H54.9063V64.7435H53.6222V63.4594ZM57.4746 63.4594H58.7587V64.7435H57.4746V63.4594ZM59.6148 63.4594H60.8989V64.7435H59.6148V63.4594ZM63.4671 63.4594H64.7512V64.7435H63.4671V63.4594ZM65.6073 63.4594H66.8914V64.7435H65.6073V63.4594ZM8.20714 66.8837C9.85938 66.8837 11.2034 68.2278 11.2034 69.88V72.8763H5.21086V69.88C5.21086 68.2278 6.55491 66.8837 8.20714 66.8837ZM74.9814 66.8837C76.6336 66.8837 77.9777 68.2278 77.9777 69.88V72.8763H71.9851V69.88C71.9851 68.2278 73.3292 66.8837 74.9814 66.8837ZM18.0949 67.7432C19.0391 67.7432 19.807 68.5111 19.807 69.4554V72.8848H16.3827V69.4554C16.3827 68.5111 17.1506 67.7432 18.0949 67.7432ZM24.0874 67.7432C25.0317 67.7432 25.7996 68.5111 25.7996 69.4554V72.8848H22.3753V69.4554C22.3753 68.5111 23.1432 67.7432 24.0874 67.7432ZM30.08 67.7432C31.0242 67.7432 31.7922 68.5111 31.7922 69.4554V72.8848H28.3678V69.4554C28.3678 68.5111 29.1357 67.7432 30.08 67.7432ZM53.1942 67.7432C54.1384 67.7432 54.9063 68.5111 54.9063 69.4554V72.8848H51.482V69.4554C51.482 68.5111 52.2499 67.7432 53.1942 67.7432ZM59.1867 67.7432C60.131 67.7432 60.8989 68.5111 60.8989 69.4554V72.8848H57.4746V69.4554C57.4746 68.5111 58.2425 67.7432 59.1867 67.7432ZM65.1793 67.7432C66.1235 67.7432 66.8914 68.5111 66.8914 69.4554V72.8848H63.4671V69.4554C63.4671 68.5111 64.235 67.7432 65.1793 67.7432Z" fill="#BFBFBF" />
</svg>
