<svg width="45" height="55" viewBox="0 0 45 55" fill="none" xmlns="http://www.w3.org/2000/svg">
<path d="M19.2361 0C19.1226 0 19.0137 0.0450966 18.9334 0.12537C18.8532 0.205643 18.8081 0.314517 18.8081 0.42804V1.75496C18.1711 1.84741 17.5811 2.14324 17.126 2.59834C16.6709 3.05345 16.3751 3.64346 16.2826 4.2804H14.0996C13.9861 4.2804 13.8772 4.3255 13.797 4.40577C13.7167 4.48604 13.6716 4.59492 13.6716 4.70844V5.99256H8.96314C8.84962 5.99256 8.74075 6.03766 8.66047 6.11793C8.5802 6.1982 8.5351 6.30708 8.5351 6.4206V13.6973H6.3949C6.28138 13.6973 6.17251 13.7424 6.09223 13.8227C6.01196 13.9029 5.96686 14.0118 5.96686 14.1253V16.2655H4.68274C4.56922 16.2655 4.46035 16.3106 4.38007 16.3909C4.2998 16.4712 4.2547 16.58 4.2547 16.6936V19.6898H2.1145C2.04157 19.6902 1.96994 19.7092 1.90635 19.7449C1.84277 19.7806 1.78932 19.832 1.75104 19.894C1.71277 19.9561 1.69092 20.0269 1.68756 20.0998C1.6842 20.1726 1.69944 20.2452 1.73184 20.3105L4.2547 25.3562V34.2432H3.82666C3.71314 34.2432 3.60427 34.2883 3.52399 34.3686C3.44372 34.4488 3.39862 34.5577 3.39862 34.6712C3.39862 34.7848 3.44372 34.8936 3.52399 34.9739C3.60427 35.0542 3.71314 35.0993 3.82666 35.0993H4.2547V40.2358H3.02537C2.94818 40.2364 2.87257 40.2578 2.8065 40.2977C2.74043 40.3376 2.68634 40.3946 2.6499 40.4627C2.61346 40.5307 2.59603 40.6073 2.59943 40.6845C2.60284 40.7616 2.62695 40.8364 2.66924 40.9009L4.2547 43.2791V51.3648H3.82666C3.71314 51.3648 3.60427 51.4099 3.52399 51.4902C3.44372 51.5704 3.39862 51.6793 3.39862 51.7928C3.39862 51.9064 3.44372 52.0152 3.52399 52.0955C3.60427 52.1758 3.71314 52.2209 3.82666 52.2209H4.2547V53.933H0.830384C0.716861 53.933 0.607987 53.9781 0.527713 54.0584C0.44744 54.1387 0.402344 54.2476 0.402344 54.3611C0.402344 54.4746 0.44744 54.5835 0.527713 54.6638C0.607987 54.744 0.716861 54.7891 0.830384 54.7891H44.4905C44.604 54.7891 44.7129 54.744 44.7931 54.6638C44.8734 54.5835 44.9185 54.4746 44.9185 54.3611C44.9185 54.2476 44.8734 54.1387 44.7931 54.0584C44.7129 53.9781 44.604 53.933 44.4905 53.933H41.0661V52.2209H41.4942C41.6077 52.2209 41.7166 52.1758 41.7969 52.0955C41.8771 52.0152 41.9222 51.9064 41.9222 51.7928C41.9222 51.6793 41.8771 51.5704 41.7969 51.4902C41.7166 51.4099 41.6077 51.3648 41.4942 51.3648H41.0661V43.3622L42.7064 40.9009C42.7493 40.8365 42.7739 40.7616 42.7776 40.6843C42.7813 40.6069 42.764 40.53 42.7274 40.4618C42.6909 40.3935 42.6365 40.3364 42.5701 40.2966C42.5037 40.2568 42.4277 40.2358 42.3503 40.2358H41.0661V35.0993H41.4942C41.6077 35.0993 41.7166 35.0542 41.7969 34.9739C41.8771 34.8936 41.9222 34.7848 41.9222 34.6712C41.9222 34.5577 41.8771 34.4488 41.7969 34.3686C41.7166 34.2883 41.6077 34.2432 41.4942 34.2432H41.0661V25.3545L43.589 20.3088C43.6218 20.2436 43.6373 20.1711 43.6341 20.0982C43.6308 20.0253 43.609 19.9544 43.5706 19.8924C43.5323 19.8303 43.4786 19.7791 43.4149 19.7437C43.3511 19.7082 43.2793 19.6897 43.2063 19.6898H41.0661V16.6936C41.0661 16.58 41.021 16.4712 40.9408 16.3909C40.8605 16.3106 40.7516 16.2655 40.6381 16.2655H39.354V14.1253C39.354 14.0118 39.3089 13.9029 39.2286 13.8227C39.1483 13.7424 39.0395 13.6973 38.9259 13.6973H36.7857V6.4206C36.7857 6.30708 36.7407 6.1982 36.6604 6.11793C36.5801 6.03766 36.4712 5.99256 36.3577 5.99256H31.6493V4.70844C31.6493 4.59492 31.6042 4.48604 31.5239 4.40577C31.4436 4.3255 31.3347 4.2804 31.2212 4.2804H29.0382C29.0297 4.22304 29.0322 4.16141 29.0211 4.1049C28.8947 3.50322 28.5862 2.95501 28.1374 2.53474C27.6887 2.11448 27.1215 1.84252 26.5128 1.75582V0.42804C26.5128 0.314517 26.4677 0.205643 26.3874 0.12537C26.3071 0.0450966 26.1983 0 26.0847 0H19.2361ZM19.6641 0.85608H25.6567V1.71216H19.6641V0.85608ZM19.2361 2.56824H26.0847C27.118 2.56824 27.9852 3.30447 28.183 4.2804H17.1396C17.3382 3.30447 18.2028 2.56824 19.2361 2.56824ZM14.5277 5.13648H30.7932V5.99256H14.5277V5.13648ZM9.39118 6.84864H35.9297V13.6973H9.39118V6.84864ZM17.5239 8.5608C17.4104 8.5608 17.3015 8.6059 17.2213 8.68617C17.141 8.76644 17.0959 8.87532 17.0959 8.98884V11.5571C17.0959 11.6706 17.141 11.7795 17.2213 11.8598C17.3015 11.94 17.4104 11.9851 17.5239 11.9851H18.8081V12.4132C18.8081 12.5267 18.8532 12.6356 18.9334 12.7158C19.0137 12.7961 19.1226 12.8412 19.2361 12.8412H26.0847C26.1983 12.8412 26.3071 12.7961 26.3874 12.7158C26.4677 12.6356 26.5128 12.5267 26.5128 12.4132V11.9851H27.7969C27.9104 11.9851 28.0193 11.94 28.0996 11.8598C28.1798 11.7795 28.2249 11.6706 28.2249 11.5571V8.98884C28.2249 8.87532 28.1798 8.76644 28.0996 8.68617C28.0193 8.6059 27.9104 8.5608 27.7969 8.5608H17.5239ZM14.0996 8.57878C13.5321 8.57923 12.988 8.80486 12.5868 9.20613C12.1855 9.6074 11.9599 10.1515 11.9594 10.719C11.9594 11.9004 12.9191 12.8592 14.0996 12.8592C15.2802 12.8592 16.2398 11.9004 16.2398 10.719C16.2398 9.53844 15.2802 8.57878 14.0996 8.57878ZM31.2212 8.57878C30.6537 8.57923 30.1096 8.80486 29.7084 9.20613C29.3071 9.6074 29.0815 10.1515 29.081 10.719C29.081 11.9004 30.0407 12.8592 31.2212 12.8592C32.4018 12.8592 33.3614 11.9004 33.3614 10.719C33.3614 9.53844 32.4018 8.57878 31.2212 8.57878ZM17.952 9.41688H27.3689V11.129H26.0847C25.9712 11.129 25.8623 11.1741 25.7821 11.2544C25.7018 11.3347 25.6567 11.4436 25.6567 11.5571V11.9851H19.6641V11.5571C19.6641 11.4436 19.619 11.3347 19.5388 11.2544C19.4585 11.1741 19.3496 11.129 19.2361 11.129H17.952V9.41688ZM14.0996 9.43486C14.8076 9.43486 15.3837 10.011 15.3837 10.719C15.3837 11.427 14.8076 12.0031 14.0996 12.0031C13.3916 12.0031 12.8155 11.427 12.8155 10.719C12.8155 10.011 13.3916 9.43486 14.0996 9.43486ZM31.2212 9.43486C31.9292 9.43486 32.5053 10.011 32.5053 10.719C32.5053 11.427 31.9292 12.0031 31.2212 12.0031C30.5132 12.0031 29.9371 11.427 29.9371 10.719C29.9371 10.011 30.5132 9.43486 31.2212 9.43486ZM6.82294 14.5534H38.4979V16.2655H6.82294V14.5534ZM5.11078 17.1216H40.2101V19.6898H5.11078V17.1216ZM2.80707 20.5459H42.5129L42.0849 21.402H3.23597L2.80707 20.5459ZM3.66315 22.2581H4.2547V23.442L3.66315 22.2581ZM5.11078 22.2581H6.82294V24.8263H5.11078V22.2581ZM7.67902 22.2581H9.39118V24.8263H7.67902V22.2581ZM10.2473 22.2581H11.9594V24.8263H10.2473V22.2581ZM12.8155 22.2581H14.5277V24.8263H12.8155V22.2581ZM15.3837 22.2581H17.0959V24.8263H15.3837V22.2581ZM17.952 22.2581H19.6641V24.8263H17.952V22.2581ZM20.5202 22.2581H22.2324V24.8263H20.5202V22.2581ZM23.0885 22.2581H24.8006V24.8263H23.0885V22.2581ZM25.6567 22.2581H27.3689V24.8263H25.6567V22.2581ZM28.2249 22.2581H29.9371V24.8263H28.2249V22.2581ZM30.7932 22.2581H32.5053V24.8263H30.7932V22.2581ZM33.3614 22.2581H35.0736V24.8263H33.3614V22.2581ZM35.9297 22.2581H37.6418V24.8263H35.9297V22.2581ZM38.4979 22.2581H40.2101V24.8263H38.4979V22.2581ZM41.0661 22.2581H41.6577L41.0661 23.442V22.2581ZM5.11078 25.6824H14.5277V34.2432H13.6716V31.2469C13.6716 31.1334 13.6265 31.0245 13.5462 30.9443C13.4659 30.864 13.3571 30.8189 13.2435 30.8189H6.3949C6.28138 30.8189 6.17251 30.864 6.09223 30.9443C6.01196 31.0245 5.96686 31.1334 5.96686 31.2469V34.2432H5.11078V25.6824ZM15.3837 25.6824H29.9371V27.3946H23.5165C23.403 27.3946 23.2941 27.4397 23.2138 27.5199C23.1336 27.6002 23.0885 27.7091 23.0885 27.8226V30.8189H22.2324V27.8226C22.2324 27.7091 22.1873 27.6002 22.107 27.5199C22.0267 27.4397 21.9179 27.3946 21.8043 27.3946H15.3837V25.6824ZM30.7932 25.6824H40.2101V34.2432H39.354V31.2469C39.354 31.1334 39.3089 31.0245 39.2286 30.9443C39.1483 30.864 39.0395 30.8189 38.9259 30.8189H32.0773C31.9638 30.8189 31.8549 30.864 31.7746 30.9443C31.6944 31.0245 31.6493 31.1334 31.6493 31.2469V34.2432H30.7932V25.6824ZM9.81922 26.5385C8.87497 26.5385 8.10706 27.3064 8.10706 28.2506C8.10706 29.1949 8.87497 29.9628 9.81922 29.9628C10.7635 29.9628 11.5314 29.1949 11.5314 28.2506C11.5314 27.3064 10.7635 26.5385 9.81922 26.5385ZM35.5016 26.5385C34.5574 26.5385 33.7895 27.3064 33.7895 28.2506C33.7895 29.1949 34.5574 29.9628 35.5016 29.9628C36.4459 29.9628 37.2138 29.1949 37.2138 28.2506C37.2138 27.3064 36.4459 26.5385 35.5016 26.5385ZM9.81922 27.3946C10.0463 27.3946 10.264 27.4848 10.4246 27.6453C10.5851 27.8058 10.6753 28.0236 10.6753 28.2506C10.6753 28.4777 10.5851 28.6954 10.4246 28.856C10.264 29.0165 10.0463 29.1067 9.81922 29.1067C9.59218 29.1067 9.37443 29.0165 9.21388 28.856C9.05334 28.6954 8.96314 28.4777 8.96314 28.2506C8.96314 28.0236 9.05334 27.8058 9.21388 27.6453C9.37443 27.4848 9.59218 27.3946 9.81922 27.3946ZM35.5016 27.3946C35.7287 27.3946 35.9464 27.4848 36.107 27.6453C36.2675 27.8058 36.3577 28.0236 36.3577 28.2506C36.3577 28.4777 36.2675 28.6954 36.107 28.856C35.9464 29.0165 35.7287 29.1067 35.5016 29.1067C35.2746 29.1067 35.0568 29.0165 34.8963 28.856C34.7357 28.6954 34.6455 28.4777 34.6455 28.2506C34.6455 28.0236 34.7357 27.8058 34.8963 27.6453C35.0568 27.4848 35.2746 27.3946 35.5016 27.3946ZM15.3837 28.2506H21.3763V28.3928C18.5872 28.9629 16.4538 31.3368 16.2595 34.2432H15.3837V28.2506ZM23.9445 28.2506H29.9371V34.2432H29.0613C28.8679 31.3368 26.7328 28.9629 23.9445 28.3928V28.2506ZM21.3763 29.266V30.1631C20.4664 30.4226 19.6562 30.9511 19.052 31.6792C18.4478 32.4073 18.0778 33.3011 17.9905 34.2432H17.1156C17.2083 33.0697 17.6707 31.9557 18.4362 31.0614C19.2018 30.1671 20.2311 29.5385 21.3763 29.266ZM23.9445 29.266C25.0898 29.5385 26.1191 30.1671 26.8846 31.0614C27.6502 31.9557 28.1125 33.0697 28.2053 34.2432H27.3303C27.2433 33.301 26.8733 32.4072 26.2691 31.679C25.6648 30.9508 24.8545 30.4224 23.9445 30.1631V29.266ZM21.3763 31.0594V31.2469C21.3763 31.3604 21.4214 31.4693 21.5017 31.5496C21.5819 31.6299 21.6908 31.675 21.8043 31.675H23.5165C23.63 31.675 23.7389 31.6299 23.8192 31.5496C23.8994 31.4693 23.9445 31.3604 23.9445 31.2469V31.0594C24.6224 31.2996 25.2192 31.7255 25.6667 32.2884C26.1143 32.8513 26.3947 33.5286 26.476 34.2432H26.0847C25.9712 34.2432 25.8623 34.2883 25.7821 34.3686C25.7018 34.4488 25.6567 34.5577 25.6567 34.6712C25.6567 34.7848 25.7018 34.8936 25.7821 34.9739C25.8623 35.0542 25.9712 35.0993 26.0847 35.0993H26.5128V40.2358H26.0847C25.9712 40.2358 25.8623 40.2809 25.7821 40.3611C25.7018 40.4414 25.6567 40.5503 25.6567 40.6638C25.6567 40.7773 25.7018 40.8862 25.7821 40.9665C25.8623 41.0467 25.9712 41.0918 26.0847 41.0918H26.5128V53.933H18.8081V41.0918H19.2361C19.3496 41.0918 19.4585 41.0467 19.5388 40.9665C19.619 40.8862 19.6641 40.7773 19.6641 40.6638C19.6641 40.5503 19.619 40.4414 19.5388 40.3611C19.4585 40.2809 19.3496 40.2358 19.2361 40.2358H18.8081V35.0993H19.2361C19.3496 35.0993 19.4585 35.0542 19.5388 34.9739C19.619 34.8936 19.6641 34.7848 19.6641 34.6712C19.6641 34.5577 19.619 34.4488 19.5388 34.3686C19.4585 34.2883 19.3496 34.2432 19.2361 34.2432H18.8449C18.9263 33.5287 19.2068 32.8515 19.6544 32.2886C20.1019 31.7257 20.6985 31.2998 21.3763 31.0594ZM6.82294 31.675H8.10706V32.531H6.82294V31.675ZM8.96314 31.675H10.6753V32.531H8.96314V31.675ZM11.5314 31.675H12.8155V32.531H11.5314V31.675ZM32.5053 31.675H33.7895V32.531H32.5053V31.675ZM34.6455 31.675H36.3577V32.531H34.6455V31.675ZM37.2138 31.675H38.4979V32.531H37.2138V31.675ZM6.82294 33.3871H12.8155V34.2432H6.82294V33.3871ZM32.5053 33.3871H38.4979V34.2432H32.5053V33.3871ZM5.11078 35.0993H5.96686V35.9554H5.11078V35.0993ZM6.82294 35.0993H12.8155V35.9554H6.82294V35.0993ZM13.6716 35.0993H14.5277V35.9554H13.6716V35.0993ZM15.3837 35.0993H17.952V40.2358H15.3837V35.0993ZM27.3689 35.0993H29.9371V40.2358H27.3689V35.0993ZM30.7932 35.0993H31.6493V35.9554H30.7932V35.0993ZM32.5053 35.0993H38.4979V35.9554H32.5053V35.0993ZM39.354 35.0993H40.2101V35.9554H39.354V35.0993ZM5.11078 36.8114H5.96686V40.2358H5.11078V36.8114ZM6.82294 36.8114H7.67902V38.9516C7.67902 39.0652 7.72412 39.174 7.80439 39.2543C7.88467 39.3346 7.99354 39.3797 8.10706 39.3797H11.5314C11.6449 39.3797 11.7538 39.3346 11.8341 39.2543C11.9143 39.174 11.9594 39.0652 11.9594 38.9516V36.8114H12.8155V40.2358H6.82294V36.8114ZM8.5351 36.8114H11.1033V38.5236H8.5351V36.8114ZM13.6716 36.8114H14.5277V40.2358H13.6716V36.8114ZM30.7932 36.8114H31.6493V40.2358H30.7932V36.8114ZM32.5053 36.8114H33.3614V38.9516C33.3614 39.0652 33.4065 39.174 33.4868 39.2543C33.5671 39.3346 33.6759 39.3797 33.7895 39.3797H37.2138C37.3273 39.3797 37.4362 39.3346 37.5165 39.2543C37.5967 39.174 37.6418 39.0652 37.6418 38.9516V36.8114H38.4979V40.2358H32.5053V36.8114ZM34.2175 36.8114H36.7857V38.5236H34.2175V36.8114ZM39.354 36.8114H40.2101V40.2358H39.354V36.8114ZM3.82495 41.0918H15.8683L14.7263 42.804H4.96525L3.82495 41.0918ZM16.8973 41.0918H17.952V53.933H15.3837V43.3622L16.8973 41.0918ZM27.3689 41.0918H28.4792L29.9371 43.2791V53.933H27.3689V41.0918ZM29.5074 41.0918H41.5507L40.4087 42.804H30.6477L29.5074 41.0918ZM5.11078 43.6601H5.96686V51.3648H5.11078V43.6601ZM6.82294 43.6601H12.8155V51.3648H6.82294V43.6601ZM13.6716 43.6601H14.5277V51.3648H13.6716V43.6601ZM30.7932 43.6601H31.6493V51.3648H30.7932V43.6601ZM32.5053 43.6601H38.4979V51.3648H32.5053V43.6601ZM39.354 43.6601H40.2101V51.3648H39.354V43.6601ZM5.11078 52.2209H5.96686V53.933H5.11078V52.2209ZM6.82294 52.2209H7.67902V53.933H6.82294V52.2209ZM8.5351 52.2209H11.1033V53.933H8.5351V52.2209ZM11.9594 52.2209H12.8155V53.933H11.9594V52.2209ZM13.6716 52.2209H14.5277V53.933H13.6716V52.2209ZM30.7932 52.2209H31.6493V53.933H30.7932V52.2209ZM32.5053 52.2209H33.3614V53.933H32.5053V52.2209ZM34.2175 52.2209H36.7857V53.933H34.2175V52.2209ZM37.6418 52.2209H38.4979V53.933H37.6418V52.2209ZM39.354 52.2209H40.2101V53.933H39.354V52.2209Z" fill="#BFBFBF"/>
</svg>
