<svg width="60" height="60" viewBox="0 0 82 103" fill="none" xmlns="http://www.w3.org/2000/svg">
	<path d="M80.4998 65.3563C80.9781 65.3563 81.2969 65.0375 81.2969 64.5593V45.4306C81.2969 44.9524 80.9781 44.6336 80.4998 44.6336H76.5147V33.4752H78.9058C79.384 33.4752 79.7028 33.1564 79.7028 32.6782V26.3019C79.7028 25.8237 79.384 25.5049 78.9058 25.5049H76.5147V19.9257H77.3117C77.79 19.9257 78.1088 19.6069 78.1088 19.1287V14.3465C78.1088 13.8683 77.79 13.5495 77.3117 13.5495H76.5147V8.28909C76.5147 6.53563 75.7177 4.94158 74.1236 3.98514L73.3266 3.50693V0.797028C73.3266 0.318811 73.0078 0 72.5296 0C72.0513 0 71.7325 0.318811 71.7325 0.797028V3.50693L70.9355 3.98514C69.5009 4.94158 68.5444 6.53563 68.5444 8.28909V13.5495H67.7474C67.2692 13.5495 66.9504 13.8683 66.9504 14.3465V19.1287C66.9504 19.6069 67.2692 19.9257 67.7474 19.9257H68.5444V25.5049H66.1533C65.6751 25.5049 65.3563 25.8237 65.3563 26.3019V32.6782C65.3563 33.1564 65.6751 33.4752 66.1533 33.4752H68.5444V35.0692H12.7525V33.4752H15.1435C15.6218 33.4752 15.9406 33.1564 15.9406 32.6782V26.3019C15.9406 25.8237 15.6218 25.5049 15.1435 25.5049H12.7525V19.9257H13.5495C14.0277 19.9257 14.3465 19.6069 14.3465 19.1287V14.3465C14.3465 13.8683 14.0277 13.5495 13.5495 13.5495H12.7525V8.28909C12.7525 6.53563 11.9554 4.94158 10.3614 3.98514L9.56434 3.50693V0.797028C9.56434 0.318811 9.24553 0 8.76731 0C8.28909 0 7.97028 0.318811 7.97028 0.797028V3.50693L7.17325 3.98514C5.7386 4.94158 4.78217 6.53563 4.78217 8.28909V13.5495H3.98514C3.50692 13.5495 3.18811 13.8683 3.18811 14.3465V19.1287C3.18811 19.6069 3.50692 19.9257 3.98514 19.9257H4.78217V25.5049H2.39108C1.91287 25.5049 1.59406 25.8237 1.59406 26.3019V32.6782C1.59406 33.1564 1.91287 33.4752 2.39108 33.4752H4.78217V44.6336H0.797028C0.318811 44.6336 0 44.9524 0 45.4306V64.5593C0 65.0375 0.318811 65.3563 0.797028 65.3563H3.18811V100.426H0.797028C0.318811 100.426 0 100.744 0 101.223C0 101.701 0.318811 102.02 0.797028 102.02H80.4998C80.9781 102.02 81.2969 101.701 81.2969 101.223C81.2969 100.744 80.9781 100.426 80.4998 100.426H78.1088V65.3563H80.4998ZM79.7028 63.7623H65.3563V46.2276H79.7028V63.7623ZM58.1831 63.7623H55.792V56.589C55.792 54.1979 57.5454 53.0821 58.1831 52.6039C58.8207 52.9227 60.5741 54.0385 60.5741 56.589V63.7623H58.1831ZM58.5019 51.0098H58.0237C57.8642 51.0098 54.1979 52.4445 54.1979 56.589V63.7623H52.6039V56.589C52.6039 52.4445 49.0969 51.1692 48.9375 51.0098H48.4593C48.2999 51.0098 44.6336 52.4445 44.6336 56.589V63.7623H36.6633V56.589C36.6633 52.4445 33.1564 51.1692 32.997 51.0098H32.5188C32.3593 51.0098 28.693 52.4445 28.693 56.589V63.7623H27.099V56.589C27.099 52.4445 23.592 51.1692 23.4326 51.0098H22.9544C22.795 51.0098 19.1287 52.4445 19.1287 56.589V63.7623H17.5346V46.2276H19.1287V47.0247C19.1287 47.5029 19.4475 47.8217 19.9257 47.8217C20.4039 47.8217 20.7227 47.5029 20.7227 47.0247V46.2276H22.3168V47.0247C22.3168 47.5029 22.6356 47.8217 23.1138 47.8217C23.592 47.8217 23.9108 47.5029 23.9108 47.0247V46.2276H25.5049V47.0247C25.5049 47.5029 25.8237 47.8217 26.3019 47.8217C26.7801 47.8217 27.099 47.5029 27.099 47.0247V46.2276H28.693V47.0247C28.693 47.5029 29.0118 47.8217 29.49 47.8217C29.9683 47.8217 30.2871 47.5029 30.2871 47.0247V46.2276H31.8811V47.0247C31.8811 47.5029 32.1999 47.8217 32.6782 47.8217C33.1564 47.8217 33.4752 47.5029 33.4752 47.0247V46.2276H35.0692V47.0247C35.0692 47.5029 35.3881 47.8217 35.8663 47.8217C36.3445 47.8217 36.6633 47.5029 36.6633 47.0247V46.2276H38.2574V47.0247C38.2574 47.5029 38.5762 47.8217 39.0544 47.8217C39.5326 47.8217 39.8514 47.5029 39.8514 47.0247V46.2276H41.4455V47.0247C41.4455 47.5029 41.7643 47.8217 42.2425 47.8217C42.7207 47.8217 43.0395 47.5029 43.0395 47.0247V46.2276H44.6336V47.0247C44.6336 47.5029 44.9524 47.8217 45.4306 47.8217C45.9088 47.8217 46.2276 47.5029 46.2276 47.0247V46.2276H47.8217V47.0247C47.8217 47.5029 48.1405 47.8217 48.6187 47.8217C49.0969 47.8217 49.4157 47.5029 49.4157 47.0247V46.2276H51.0098V47.0247C51.0098 47.5029 51.3286 47.8217 51.8068 47.8217C52.285 47.8217 52.6039 47.5029 52.6039 47.0247V46.2276H54.1979V47.0247C54.1979 47.5029 54.5167 47.8217 54.9949 47.8217C55.4732 47.8217 55.792 47.5029 55.792 47.0247V46.2276H57.386V47.0247C57.386 47.5029 57.7048 47.8217 58.1831 47.8217C58.6613 47.8217 58.9801 47.5029 58.9801 47.0247V46.2276H60.5741V47.0247C60.5741 47.5029 60.893 47.8217 61.3712 47.8217C61.8494 47.8217 62.1682 47.5029 62.1682 47.0247V46.2276H63.7623V63.7623H62.1682V56.589C62.1682 52.4445 58.6613 51.1692 58.5019 51.0098ZM46.2276 63.7623V56.589C46.2276 54.1979 47.9811 53.0821 48.6187 52.6039C49.2563 52.9227 51.0098 54.0385 51.0098 56.589V63.7623H46.2276ZM30.2871 63.7623V56.589C30.2871 54.1979 32.0405 53.0821 32.6782 52.6039C33.3158 52.9227 35.0692 54.0385 35.0692 56.589V63.7623H30.2871ZM23.1138 63.7623H20.7227V56.589C20.7227 54.1979 22.4762 53.0821 23.1138 52.6039C23.7514 52.9227 25.5049 54.0385 25.5049 56.589V63.7623H23.1138ZM12.7525 39.8514H68.5444V44.6336H65.3563V43.8366C65.3563 42.5613 64.2405 41.4455 62.9652 41.4455C61.69 41.4455 60.5741 42.5613 60.5741 43.8366V44.6336H58.9801V43.8366C58.9801 42.5613 57.8642 41.4455 56.589 41.4455C55.3138 41.4455 54.1979 42.5613 54.1979 43.8366V44.6336H52.6039V43.8366C52.6039 42.5613 51.488 41.4455 50.2128 41.4455C48.9375 41.4455 47.8217 42.5613 47.8217 43.8366V44.6336H46.2276V43.8366C46.2276 42.5613 45.1118 41.4455 43.8366 41.4455C42.5613 41.4455 41.4455 42.5613 41.4455 43.8366V44.6336H39.8514V43.8366C39.8514 42.5613 38.7356 41.4455 37.4603 41.4455C36.1851 41.4455 35.0692 42.5613 35.0692 43.8366V44.6336H33.4752V43.8366C33.4752 42.5613 32.3593 41.4455 31.0841 41.4455C29.8089 41.4455 28.693 42.5613 28.693 43.8366V44.6336H27.099V43.8366C27.099 42.5613 25.9831 41.4455 24.7079 41.4455C23.4326 41.4455 22.3168 42.5613 22.3168 43.8366V44.6336H20.7227V43.8366C20.7227 42.5613 19.6069 41.4455 18.3316 41.4455C17.0564 41.4455 15.9406 42.5613 15.9406 43.8366V44.6336H12.7525V39.8514ZM63.7623 44.6336H62.1682V43.8366C62.1682 43.3583 62.487 43.0395 62.9652 43.0395C63.4434 43.0395 63.7623 43.3583 63.7623 43.8366V44.6336ZM57.386 44.6336H55.792V43.8366C55.792 43.3583 56.1108 43.0395 56.589 43.0395C57.0672 43.0395 57.386 43.3583 57.386 43.8366V44.6336ZM51.0098 44.6336H49.4157V43.8366C49.4157 43.3583 49.7346 43.0395 50.2128 43.0395C50.691 43.0395 51.0098 43.3583 51.0098 43.8366V44.6336ZM44.6336 44.6336H43.0395V43.8366C43.0395 43.3583 43.3583 43.0395 43.8366 43.0395C44.3148 43.0395 44.6336 43.3583 44.6336 43.8366V44.6336ZM38.2574 44.6336H36.6633V43.8366C36.6633 43.3583 36.9821 43.0395 37.4603 43.0395C37.9385 43.0395 38.2574 43.3583 38.2574 43.8366V44.6336ZM31.8811 44.6336H30.2871V43.8366C30.2871 43.3583 30.6059 43.0395 31.0841 43.0395C31.5623 43.0395 31.8811 43.3583 31.8811 43.8366V44.6336ZM25.5049 44.6336H23.9108V43.8366C23.9108 43.3583 24.2297 43.0395 24.7079 43.0395C25.1861 43.0395 25.5049 43.3583 25.5049 43.8366V44.6336ZM19.1287 44.6336H17.5346V43.8366C17.5346 43.3583 17.8534 43.0395 18.3316 43.0395C18.8099 43.0395 19.1287 43.3583 19.1287 43.8366V44.6336ZM76.5147 18.3316H74.9206V17.5346C74.9206 17.0564 74.6018 16.7376 74.1236 16.7376C73.6454 16.7376 73.3266 17.0564 73.3266 17.5346V18.3316H71.7325V17.5346C71.7325 17.0564 71.4137 16.7376 70.9355 16.7376C70.4573 16.7376 70.1385 17.0564 70.1385 17.5346V18.3316H68.5444V15.1435H76.5147V18.3316ZM71.7325 5.41979L72.5296 4.94158L73.3266 5.41979C74.283 6.05741 74.7612 7.01385 74.9206 7.97028H70.1385C70.2979 6.85444 70.7761 5.89801 71.7325 5.41979ZM70.1385 9.56434H74.9206V13.5495H73.3266V11.9554C73.3266 11.4772 73.0078 11.1584 72.5296 11.1584C72.0513 11.1584 71.7325 11.4772 71.7325 11.9554V13.5495H70.1385V9.56434ZM70.1385 19.9257H74.9206V25.5049H70.1385V19.9257ZM66.9504 31.8811V27.099H78.1088V31.8811H76.5147V29.49C76.5147 29.0118 76.1959 28.693 75.7177 28.693C75.2395 28.693 74.9206 29.0118 74.9206 29.49V31.8811H73.3266V29.49C73.3266 29.0118 73.0078 28.693 72.5296 28.693C72.0513 28.693 71.7325 29.0118 71.7325 29.49V31.8811H70.1385V29.49C70.1385 29.0118 69.8197 28.693 69.3415 28.693C68.8632 28.693 68.5444 29.0118 68.5444 29.49V31.8811H66.9504ZM74.9206 33.4752V44.6336H70.1385V33.4752H74.9206ZM68.5444 36.6633V38.2574H12.7525V36.6633H68.5444ZM12.7525 18.3316H11.1584V17.5346C11.1584 17.0564 10.8396 16.7376 10.3614 16.7376C9.88315 16.7376 9.56434 17.0564 9.56434 17.5346V18.3316H7.97028V17.5346C7.97028 17.0564 7.65147 16.7376 7.17325 16.7376C6.69504 16.7376 6.37623 17.0564 6.37623 17.5346V18.3316H4.78217V15.1435H12.7525V18.3316ZM7.97028 5.41979L8.76731 4.94158L9.56434 5.41979C10.5208 6.05741 10.999 7.01385 11.1584 7.97028H6.37623C6.53563 6.85444 7.01385 5.89801 7.97028 5.41979ZM6.37623 9.56434H11.1584V13.5495H9.56434V11.9554C9.56434 11.4772 9.24553 11.1584 8.76731 11.1584C8.28909 11.1584 7.97028 11.4772 7.97028 11.9554V13.5495H6.37623V9.56434ZM6.37623 19.9257H11.1584V25.5049H6.37623V19.9257ZM3.18811 31.8811V27.099H14.3465V31.8811H12.7525V29.49C12.7525 29.0118 12.4336 28.693 11.9554 28.693C11.4772 28.693 11.1584 29.0118 11.1584 29.49V31.8811H9.56434V29.49C9.56434 29.0118 9.24553 28.693 8.76731 28.693C8.28909 28.693 7.97028 29.0118 7.97028 29.49V31.8811H6.37623V29.49C6.37623 29.0118 6.05741 28.693 5.5792 28.693C5.10098 28.693 4.78217 29.0118 4.78217 29.49V31.8811H3.18811ZM6.37623 33.4752H11.1584V44.6336H6.37623V33.4752ZM1.59406 46.2276H15.9406V63.7623H1.59406V46.2276ZM4.78217 65.3563H12.7525V100.426H4.78217V65.3563ZM14.3465 65.3563H15.9406V66.1533C15.9406 66.6316 16.2594 66.9504 16.7376 66.9504C17.2158 66.9504 17.5346 66.6316 17.5346 66.1533V65.3563H19.1287V66.1533C19.1287 66.6316 19.4475 66.9504 19.9257 66.9504C20.4039 66.9504 20.7227 66.6316 20.7227 66.1533V65.3563H22.3168V100.426H14.3465V65.3563ZM23.9108 65.3563H25.5049V66.1533C25.5049 66.6316 25.8237 66.9504 26.3019 66.9504C26.7801 66.9504 27.099 66.6316 27.099 66.1533V65.3563H28.693V66.1533C28.693 66.6316 29.0118 66.9504 29.49 66.9504C29.9683 66.9504 30.2871 66.6316 30.2871 66.1533V65.3563H31.8811V66.1533C31.8811 66.6316 32.1999 66.9504 32.6782 66.9504C33.1564 66.9504 33.4752 66.6316 33.4752 66.1533V65.3563H35.0692V66.1533C35.0692 66.6316 35.3881 66.9504 35.8663 66.9504C36.3445 66.9504 36.6633 66.6316 36.6633 66.1533V65.3563H38.2574V66.1533C38.2574 66.6316 38.5762 66.9504 39.0544 66.9504C39.5326 66.9504 39.8514 66.6316 39.8514 66.1533V65.3563H41.4455V66.1533C41.4455 66.6316 41.7643 66.9504 42.2425 66.9504C42.7207 66.9504 43.0395 66.6316 43.0395 66.1533V65.3563H44.6336V66.1533C44.6336 66.6316 44.9524 66.9504 45.4306 66.9504C45.9088 66.9504 46.2276 66.6316 46.2276 66.1533V65.3563H47.8217V66.1533C47.8217 66.6316 48.1405 66.9504 48.6187 66.9504C49.0969 66.9504 49.4157 66.6316 49.4157 66.1533V65.3563H51.0098V66.1533C51.0098 66.6316 51.3286 66.9504 51.8068 66.9504C52.285 66.9504 52.6039 66.6316 52.6039 66.1533V65.3563H54.1979V66.1533C54.1979 66.6316 54.5167 66.9504 54.9949 66.9504C55.4732 66.9504 55.792 66.6316 55.792 66.1533V65.3563H57.386V100.426H54.1979V84.6444C54.1979 79.2246 51.1692 74.283 45.9088 71.4137L40.9672 68.7038C40.6484 68.5444 40.489 68.5444 40.1702 68.7038L35.2286 71.4137C30.1277 74.283 26.9396 79.2246 26.9396 84.6444V100.426H23.7514V65.3563H23.9108ZM52.6039 100.426H28.693V84.6444C28.693 79.8622 31.4029 75.3989 36.0257 72.8484L40.6484 70.2979L45.1118 72.8484C49.7346 75.3989 52.6039 79.8622 52.6039 84.6444V100.426ZM58.9801 65.3563H60.5741V66.1533C60.5741 66.6316 60.893 66.9504 61.3712 66.9504C61.8494 66.9504 62.1682 66.6316 62.1682 66.1533V65.3563H63.7623V66.1533C63.7623 66.6316 64.0811 66.9504 64.5593 66.9504C65.0375 66.9504 65.3563 66.6316 65.3563 66.1533V65.3563H66.9504V100.426H58.9801V65.3563ZM76.5147 100.426H68.5444V65.3563H76.5147V100.426Z" fill="#BFBFBF" />
	<path d="M27.8968 73.3282C29.1721 73.3282 30.2879 72.2124 30.2879 70.9371C30.2879 69.6619 29.1721 68.546 27.8968 68.546C26.6216 68.546 25.5057 69.6619 25.5057 70.9371C25.5057 72.2124 26.6216 73.3282 27.8968 73.3282ZM27.8968 70.1401C28.375 70.1401 28.6939 70.4589 28.6939 70.9371C28.6939 71.4153 28.375 71.7341 27.8968 71.7341C27.4186 71.7341 27.0998 71.4153 27.0998 70.9371C27.0998 70.4589 27.4186 70.1401 27.8968 70.1401ZM53.4017 73.3282C54.677 73.3282 55.7928 72.2124 55.7928 70.9371C55.7928 69.6619 54.677 68.546 53.4017 68.546C52.1265 68.546 51.0106 69.6619 51.0106 70.9371C51.0106 72.2124 52.1265 73.3282 53.4017 73.3282ZM53.4017 70.1401C53.8799 70.1401 54.1988 70.4589 54.1988 70.9371C54.1988 71.4153 53.8799 71.7341 53.4017 71.7341C52.9235 71.7341 52.6047 71.4153 52.6047 70.9371C52.6047 70.4589 52.9235 70.1401 53.4017 70.1401ZM40.6493 52.6055C39.374 52.6055 38.2582 53.7213 38.2582 54.9966C38.2582 56.2718 39.374 57.3876 40.6493 57.3876C41.9245 57.3876 43.0404 56.2718 43.0404 54.9966C43.0404 53.7213 41.9245 52.6055 40.6493 52.6055ZM40.6493 55.7936C40.1711 55.7936 39.8523 55.4748 39.8523 54.9966C39.8523 54.5183 40.1711 54.1995 40.6493 54.1995C41.1275 54.1995 41.4463 54.5183 41.4463 54.9966C41.4463 55.4748 41.1275 55.7936 40.6493 55.7936ZM18.3325 84.4866C17.0572 84.4866 15.9414 85.6024 15.9414 86.8777V90.0658C15.9414 90.544 16.2602 90.8628 16.7384 90.8628H19.9265C20.4048 90.8628 20.7236 90.544 20.7236 90.0658V86.8777C20.7236 85.6024 19.6077 84.4866 18.3325 84.4866ZM19.1295 89.2688H17.5355V86.8777C17.5355 86.3995 17.8543 86.0807 18.3325 86.0807C18.8107 86.0807 19.1295 86.3995 19.1295 86.8777V89.2688ZM18.3325 92.4569C17.0572 92.4569 15.9414 93.5727 15.9414 94.848V98.0361C15.9414 98.5143 16.2602 98.8331 16.7384 98.8331H19.9265C20.4048 98.8331 20.7236 98.5143 20.7236 98.0361V94.848C20.7236 93.5727 19.6077 92.4569 18.3325 92.4569ZM19.1295 97.2391H17.5355V94.848C17.5355 94.3698 17.8543 94.0509 18.3325 94.0509C18.8107 94.0509 19.1295 94.3698 19.1295 94.848V97.2391ZM62.9661 68.546C61.6908 68.546 60.575 69.6619 60.575 70.9371V74.1252C60.575 74.6035 60.8938 74.9223 61.372 74.9223H64.5601C65.0383 74.9223 65.3572 74.6035 65.3572 74.1252V70.9371C65.3572 69.6619 64.2413 68.546 62.9661 68.546ZM63.7631 73.3282H62.169V70.9371C62.169 70.4589 62.4879 70.1401 62.9661 70.1401C63.4443 70.1401 63.7631 70.4589 63.7631 70.9371V73.3282ZM62.9661 76.5163C61.6908 76.5163 60.575 77.6322 60.575 78.9074V82.0955C60.575 82.5737 60.8938 82.8925 61.372 82.8925H64.5601C65.0383 82.8925 65.3572 82.5737 65.3572 82.0955V78.9074C65.3572 77.6322 64.2413 76.5163 62.9661 76.5163ZM63.7631 81.2985H62.169V78.9074C62.169 78.4292 62.4879 78.1104 62.9661 78.1104C63.4443 78.1104 63.7631 78.4292 63.7631 78.9074V81.2985ZM62.9661 92.4569C61.6908 92.4569 60.575 93.5727 60.575 94.848V98.0361C60.575 98.5143 60.8938 98.8331 61.372 98.8331H64.5601C65.0383 98.8331 65.3572 98.5143 65.3572 98.0361V94.848C65.3572 93.5727 64.2413 92.4569 62.9661 92.4569ZM63.7631 97.2391H62.169V94.848C62.169 94.3698 62.4879 94.0509 62.9661 94.0509C63.4443 94.0509 63.7631 94.3698 63.7631 94.848V97.2391ZM62.9661 84.4866C61.6908 84.4866 60.575 85.6024 60.575 86.8777V90.0658C60.575 90.544 60.8938 90.8628 61.372 90.8628H64.5601C65.0383 90.8628 65.3572 90.544 65.3572 90.0658V86.8777C65.3572 85.6024 64.2413 84.4866 62.9661 84.4866ZM63.7631 89.2688H62.169V86.8777C62.169 86.3995 62.4879 86.0807 62.9661 86.0807C63.4443 86.0807 63.7631 86.3995 63.7631 86.8777V89.2688Z" fill="#BFBFBF" />
</svg>
