<svg width="56" height="50" viewBox="0 0 56 50" fill="none" xmlns="http://www.w3.org/2000/svg">
<path d="M55.0997 48.6749H53.8156V40.9701H54.2436C54.5004 40.9701 54.6717 40.7989 54.6717 40.5421C54.6717 40.2853 54.5004 40.1141 54.2436 40.1141H53.8156V33.2654H54.2436C54.5004 33.2654 54.6717 33.0942 54.6717 32.8374C54.6717 32.5806 54.5004 32.4093 54.2436 32.4093H53.8156V29.8411H54.2436C54.5004 29.8411 54.6717 29.6699 54.6717 29.4131C54.6717 29.1562 54.5004 28.985 54.2436 28.985H53.8156V25.9887C53.8156 25.7319 53.6444 25.5607 53.3875 25.5607C53.1307 25.5607 52.9595 25.7319 52.9595 25.9887V26.4168H52.1034V23.8485H52.5315C52.7883 23.8485 52.9595 23.6773 52.9595 23.4205C52.9595 23.1637 52.7883 22.9925 52.5315 22.9925H52.1034C52.1034 22.222 51.5898 21.5371 50.8193 21.3659V19.9962C50.8193 19.7394 50.6481 19.5681 50.3913 19.5681C50.1344 19.5681 49.9632 19.7394 49.9632 19.9962V21.3659C49.1927 21.5371 48.6791 22.222 48.6791 22.9925H48.2511C47.9942 22.9925 47.823 23.1637 47.823 23.4205C47.823 23.6773 47.9942 23.8485 48.2511 23.8485H48.6791V26.4168H47.823V25.9887C47.823 25.7319 47.6518 25.5607 47.395 25.5607C47.1381 25.5607 46.9669 25.7319 46.9669 25.9887V28.985H46.5389C46.2821 28.985 46.1109 29.1562 46.1109 29.4131C46.1109 29.6699 46.2821 29.8411 46.5389 29.8411H46.9669V30.6972H40.1183V29.8411H40.5463C40.8032 29.8411 40.9744 29.6699 40.9744 29.4131C40.9744 29.1562 40.8032 28.985 40.5463 28.985H40.1183V24.7046H40.5463C40.8032 24.7046 40.9744 24.5334 40.9744 24.2766C40.9744 24.0198 40.8032 23.8485 40.5463 23.8485H40.1183C39.9471 22.9925 39.2622 22.3076 38.4061 22.1364V20.8523C38.4061 20.5954 38.2349 20.4242 37.9781 20.4242C37.7213 20.4242 37.5501 20.5954 37.5501 20.8523V22.1364H37.122C36.0947 22.1364 35.2386 21.3659 35.0674 20.4242H36.2659C36.5228 20.4242 36.694 20.253 36.694 19.9962V18.284C36.694 18.0272 36.5228 17.856 36.2659 17.856H34.9818V16.1438H35.4099C35.6667 16.1438 35.8379 15.9726 35.8379 15.7158C35.8379 15.459 35.6667 15.2877 35.4099 15.2877H34.9818C34.6394 12.6339 32.8416 10.4937 30.359 9.63761V6.72693H30.787C31.0438 6.72693 31.2151 6.55572 31.2151 6.29889C31.2151 6.04207 31.0438 5.87085 30.787 5.87085H30.359C30.1878 5.01477 29.5029 4.32991 28.6468 4.15869V1.16241C28.6468 0.905591 28.4756 0.734375 28.2188 0.734375C27.962 0.734375 27.7907 0.905591 27.7907 1.16241V4.15869C26.9347 4.32991 26.2498 5.01477 26.0786 5.87085H25.6505C25.3937 5.87085 25.2225 6.04207 25.2225 6.29889C25.2225 6.55572 25.3937 6.72693 25.6505 6.72693H26.0786V9.63761C23.5959 10.4937 21.7982 12.6339 21.4557 15.2877H20.9421C20.6853 15.2877 20.5141 15.459 20.5141 15.7158C20.5141 15.9726 20.6853 16.1438 20.9421 16.1438H21.3701V17.856H20.086C19.8292 17.856 19.658 18.0272 19.658 18.284V19.9962C19.658 20.253 19.8292 20.4242 20.086 20.4242H21.2845C21.1133 21.3659 20.2572 22.1364 19.2299 22.1364H18.8019V20.8523C18.8019 20.5954 18.6307 20.4242 18.3739 20.4242C18.117 20.4242 17.9458 20.5954 17.9458 20.8523V22.1364C17.0897 22.3076 16.4049 22.9925 16.2337 23.8485H15.8056C15.5488 23.8485 15.3776 24.0198 15.3776 24.2766C15.3776 24.5334 15.5488 24.7046 15.8056 24.7046H16.2337V28.985H15.8056C15.5488 28.985 15.3776 29.1562 15.3776 29.4131C15.3776 29.6699 15.5488 29.8411 15.8056 29.8411H16.2337V30.6972H9.38502V29.8411H9.81306C10.0699 29.8411 10.2411 29.6699 10.2411 29.4131C10.2411 29.1562 10.0699 28.985 9.81306 28.985H9.38502V25.9887C9.38502 25.7319 9.2138 25.5607 8.95698 25.5607C8.70016 25.5607 8.52894 25.7319 8.52894 25.9887V26.4168H7.67286V23.8485H8.1009C8.35772 23.8485 8.52894 23.6773 8.52894 23.4205C8.52894 23.1637 8.35772 22.9925 8.1009 22.9925H7.67286C7.67286 22.222 7.15921 21.5371 6.38874 21.3659V19.9962C6.38874 19.7394 6.21752 19.5681 5.9607 19.5681C5.70388 19.5681 5.53266 19.7394 5.53266 19.9962V21.3659C4.76219 21.5371 4.24854 22.222 4.24854 22.9925H3.8205C3.56367 22.9925 3.39246 23.1637 3.39246 23.4205C3.39246 23.6773 3.56367 23.8485 3.8205 23.8485H4.24854V26.4168H3.39246V25.9887C3.39246 25.7319 3.22124 25.5607 2.96442 25.5607C2.70759 25.5607 2.53638 25.7319 2.53638 25.9887V28.985H2.10834C1.85151 28.985 1.6803 29.1562 1.6803 29.4131C1.6803 29.6699 1.85151 29.8411 2.10834 29.8411H2.53638V32.4093H2.10834C1.85151 32.4093 1.6803 32.5806 1.6803 32.8374C1.6803 33.0942 1.85151 33.2654 2.10834 33.2654H2.53638V40.1141H2.10834C1.85151 40.1141 1.6803 40.2853 1.6803 40.5421C1.6803 40.7989 1.85151 40.9701 2.10834 40.9701H2.53638V48.6749H1.25226C0.995435 48.6749 0.824219 48.8461 0.824219 49.1029C0.824219 49.3597 0.995435 49.5309 1.25226 49.5309H55.1853C55.4421 49.5309 55.6133 49.3597 55.6133 49.1029C55.6133 48.8461 55.3565 48.6749 55.0997 48.6749ZM52.9595 40.1141H47.823V33.2654H52.9595V40.1141ZM50.3913 22.1364C50.9049 22.1364 51.2473 22.4788 51.2473 22.9925H49.5352C49.5352 22.4788 49.9632 22.1364 50.3913 22.1364ZM49.5352 23.8485H51.2473V26.4168H49.5352V23.8485ZM47.823 27.3585L49.1071 27.2729H52.8739V28.985H47.7374V27.3585H47.823ZM52.9595 29.8411V32.4093H47.823V29.8411H52.9595ZM46.9669 31.5533V32.4093H46.5389C46.2821 32.4093 46.1109 32.5806 46.1109 32.8374C46.1109 33.0942 46.2821 33.2654 46.5389 33.2654H46.9669V34.1215H40.1183V33.2654H40.5463C40.8032 33.2654 40.9744 33.0942 40.9744 32.8374C40.9744 32.5806 40.8032 32.4093 40.5463 32.4093H40.1183V31.5533H46.9669ZM24.7089 46.1066V38.4019C24.7089 36.5185 26.2498 34.9776 28.1332 34.9776C30.0166 34.9776 31.5575 36.5185 31.5575 38.4019V48.6749H24.7089V46.1066ZM28.1332 34.1215C26.7634 34.1215 25.4793 34.8064 24.7089 35.8337V33.2654H31.5575V35.8337C30.787 34.8064 29.5885 34.1215 28.1332 34.1215ZM30.2734 32.4093H24.7089V30.6972H31.5575V32.4093H30.2734ZM22.1406 26.4168H23.8528V28.1289H22.1406V26.4168ZM25.993 26.4168H31.5575V28.1289H24.7089V26.4168H25.993ZM23.8528 20.4242H24.7089V23.8485H23.8528V20.4242ZM25.5649 20.4242H30.7014V23.8485H29.8453V22.9068C29.8453 21.9652 29.0749 21.1947 28.1332 21.1947C27.1915 21.1947 26.421 21.9652 26.421 22.9068V23.8485H25.5649V20.4242ZM32.4136 23.8485H31.5575V20.4242H32.4136V23.8485ZM28.9893 23.8485H27.2771V22.9068C27.2771 22.3932 27.6195 22.0508 28.1332 22.0508C28.6468 22.0508 28.9893 22.3932 28.9893 22.9068V23.8485ZM26.421 24.7046H29.8453V25.5607H26.421V24.7046ZM34.1257 28.1289H32.4136V26.4168H34.1257V28.1289ZM21.7126 28.985H35.8379V29.8411H20.4285V28.985H21.7126ZM17.0041 31.1252V29.8411H19.5724V30.2691C19.5724 30.526 19.7436 30.6972 20.0004 30.6972H21.2845V32.4093H17.0041V31.1252ZM21.2845 33.2654V35.2344C21.0277 35.0632 20.7709 34.9776 20.4285 34.9776C20.086 34.9776 19.8292 35.0632 19.5724 35.2344V33.2654H21.2845ZM21.2845 44.3945H19.5724V42.6823C19.5724 42.1686 19.9148 41.8262 20.4285 41.8262C20.9421 41.8262 21.2845 42.1686 21.2845 42.6823V44.3945ZM20.4285 40.9701C20.086 40.9701 19.8292 41.0557 19.5724 41.227V39.258H21.2845V41.227C21.0277 41.0557 20.7709 40.9701 20.4285 40.9701ZM21.2845 38.4019H19.5724V36.6897C19.5724 36.1761 19.9148 35.8337 20.4285 35.8337C20.9421 35.8337 21.2845 36.1761 21.2845 36.6897V38.4019ZM19.5724 45.2505H21.2845V48.6749H19.5724V45.2505ZM22.1406 30.6972H23.8528V32.4093H22.1406V30.6972ZM32.4136 30.6972H34.1257V32.4093H32.4136V30.6972ZM36.694 44.3945H34.9818V42.6823C34.9818 42.1686 35.3242 41.8262 35.8379 41.8262C36.3515 41.8262 36.694 42.1686 36.694 42.6823V44.3945ZM35.8379 40.9701C35.4955 40.9701 35.2386 41.0557 34.9818 41.227V39.258H36.694V41.227C36.4371 41.0557 36.1803 40.9701 35.8379 40.9701ZM36.694 38.4019H34.9818V36.6897C34.9818 36.1761 35.3242 35.8337 35.8379 35.8337C36.3515 35.8337 36.694 36.1761 36.694 36.6897V38.4019ZM34.9818 45.2505H36.694V48.6749H34.9818V45.2505ZM36.694 35.2344C36.4371 35.0632 36.1803 34.9776 35.8379 34.9776C35.4955 34.9776 35.2386 35.0632 34.9818 35.2344V33.2654H36.694V35.2344ZM34.9818 32.4093V30.6972H36.2659C36.5228 30.6972 36.694 30.526 36.694 30.2691V29.8411H39.2622V32.4093H34.9818ZM39.2622 28.985H38.4061V26.8448C38.4061 26.588 38.2349 26.4168 37.9781 26.4168C37.7213 26.4168 37.5501 26.588 37.5501 26.8448V28.985H36.694V24.7046H39.2622V28.985ZM39.1766 23.8485H36.7796C36.9508 23.3349 37.4644 22.9925 37.9781 22.9925C38.4917 22.9925 39.0054 23.3349 39.1766 23.8485ZM36.3515 22.9068C36.0947 23.1637 35.9235 23.5061 35.8379 23.8485H35.4099C35.153 23.8485 34.9818 24.0198 34.9818 24.2766C34.9818 24.5334 35.153 24.7046 35.4099 24.7046H35.8379V28.1289H34.9818V25.9887C34.9818 25.7319 34.8106 25.5607 34.5538 25.5607H30.7014V24.7046H33.6977C33.9545 24.7046 34.1257 24.5334 34.1257 24.2766C34.1257 24.0198 33.9545 23.8485 33.6977 23.8485H33.2697V20.4242H34.2113C34.3826 21.6227 35.2386 22.5644 36.3515 22.9068ZM34.1257 17.856H33.2697V16.1438H34.1257V17.856ZM23.8528 16.1438H25.5649V17.856H23.8528V16.1438ZM26.421 16.1438H29.8453V17.856H26.421V16.1438ZM30.7014 16.1438H32.4136V17.856H30.7014V16.1438ZM28.1332 5.01477C28.7324 5.01477 29.1605 5.35721 29.3317 5.87085H26.9347C27.1059 5.35721 27.5339 5.01477 28.1332 5.01477ZM26.8491 6.72693H29.4173V9.38078C29.1605 9.29517 28.818 9.29517 28.5612 9.29517V8.01105C28.5612 7.75423 28.39 7.58301 28.1332 7.58301C27.8764 7.58301 27.7051 7.75423 27.7051 8.01105V9.29517C27.4483 9.29517 27.1059 9.38078 26.8491 9.38078V6.72693ZM28.1332 10.1513C31.1295 10.1513 33.6121 12.3771 34.0401 15.2877H22.2262C22.6543 12.3771 25.1369 10.1513 28.1332 10.1513ZM22.1406 16.1438H22.9967V17.856H22.1406V16.1438ZM20.4285 18.7121H35.8379V19.5681H20.4285V18.7121ZM22.1406 20.4242H23.0823V23.8485H22.6543C22.3974 23.8485 22.2262 24.0198 22.2262 24.2766C22.2262 24.5334 22.3974 24.7046 22.6543 24.7046H25.6505V25.5607H21.7982C21.5414 25.5607 21.3701 25.7319 21.3701 25.9887V28.1289H20.5141V24.7046H20.9421C21.1989 24.7046 21.3701 24.5334 21.3701 24.2766C21.3701 24.0198 21.1989 23.8485 20.9421 23.8485H20.5141C20.4285 23.5061 20.2572 23.1637 20.0004 22.9068C21.0277 22.5644 21.9694 21.6227 22.1406 20.4242ZM18.2883 22.9925C18.8875 22.9925 19.3155 23.3349 19.4868 23.8485H17.0897C17.261 23.3349 17.7746 22.9925 18.2883 22.9925ZM19.5724 24.7046V28.985H18.7163V26.8448C18.7163 26.588 18.5451 26.4168 18.2883 26.4168C18.0314 26.4168 17.8602 26.588 17.8602 26.8448V28.985H17.0041V24.7046H19.5724ZM16.1481 31.5533V32.4093H15.72C15.4632 32.4093 15.292 32.5806 15.292 32.8374C15.292 33.0942 15.4632 33.2654 15.72 33.2654H16.1481V34.1215H9.29941V33.2654H9.72745C9.98428 33.2654 10.1555 33.0942 10.1555 32.8374C10.1555 32.5806 9.98428 32.4093 9.72745 32.4093H9.29941V31.5533H16.1481ZM5.87509 22.1364C6.38874 22.1364 6.73117 22.4788 6.73117 22.9925H5.01901C5.01901 22.4788 5.36144 22.1364 5.87509 22.1364ZM5.01901 23.8485H6.73117V26.4168H5.01901V23.8485ZM3.30685 27.3585L4.50536 27.2729H8.35772V28.985H3.22124V27.3585H3.30685ZM3.30685 29.8411H8.44333V32.4093H3.30685V29.8411ZM3.30685 33.2654H8.44333V40.1141H3.30685V33.2654ZM3.30685 40.9701H8.44333V48.6749H3.30685V40.9701ZM9.29941 40.9701H9.72745C9.98428 40.9701 10.1555 40.7989 10.1555 40.5421C10.1555 40.2853 9.98428 40.1141 9.72745 40.1141H9.29941V34.9776H16.1481V48.6749H9.29941V40.9701ZM17.0041 48.6749V33.2654H18.7163V48.6749H17.0041ZM22.1406 48.6749V33.2654H23.8528V48.6749H22.1406ZM32.4136 48.6749V33.2654H34.1257V48.6749H32.4136ZM37.5501 44.8225V33.2654H39.2622V48.6749H37.5501V44.8225ZM40.1183 34.9776H46.9669V40.1141H46.5389C46.2821 40.1141 46.1109 40.2853 46.1109 40.5421C46.1109 40.7989 46.2821 40.9701 46.5389 40.9701H46.9669V48.6749H40.1183V34.9776ZM47.823 48.6749V40.9701H52.9595V48.6749H47.823Z" fill="#BFBFBF"/>
<path d="M14.008 36.2582H11.4398C11.1829 36.2582 11.0117 36.4294 11.0117 36.6862V40.1105C11.0117 40.3674 11.1829 40.5386 11.4398 40.5386H14.008C14.2648 40.5386 14.436 40.3674 14.436 40.1105V36.6862C14.436 36.4294 14.2648 36.2582 14.008 36.2582ZM13.58 37.1143V37.9703H11.8678V37.1143H13.58ZM13.58 39.6825H11.8678V38.8264H13.58V39.6825ZM14.008 30.2656H11.4398C11.1829 30.2656 11.0117 30.4368 11.0117 30.6937V34.118C11.0117 34.3748 11.1829 34.546 11.4398 34.546H14.008C14.2648 34.546 14.436 34.3748 14.436 34.118V30.6937C14.436 30.4368 14.2648 30.2656 14.008 30.2656ZM13.58 31.1217V31.9778H11.8678V31.1217H13.58ZM13.58 33.6899H11.8678V32.8339H13.58V33.6899ZM7.15937 36.2582H4.59113C4.3343 36.2582 4.16309 36.4294 4.16309 36.6862V40.1105C4.16309 40.3674 4.3343 40.5386 4.59113 40.5386H7.15937C7.41619 40.5386 7.58741 40.3674 7.58741 40.1105V36.6862C7.58741 36.4294 7.41619 36.2582 7.15937 36.2582ZM6.73133 39.6825H5.01917V37.1143H6.73133V39.6825Z" fill="#BFBFBF"/>
<path d="M49.1068 32.8351H51.675C51.9318 32.8351 52.103 32.6639 52.103 32.407V28.9827C52.103 28.7259 51.9318 28.5547 51.675 28.5547H49.1068C48.8499 28.5547 48.6787 28.7259 48.6787 28.9827V32.407C48.6787 32.6639 48.8499 32.8351 49.1068 32.8351ZM49.5348 31.979V31.1229H51.247V31.979H49.5348ZM51.247 29.4108V30.2668H49.5348V29.4108H51.247ZM44.8264 36.2594H42.2581C42.0013 36.2594 41.8301 36.4306 41.8301 36.6874V40.1118C41.8301 40.3686 42.0013 40.5398 42.2581 40.5398H44.8264C45.0832 40.5398 45.2544 40.3686 45.2544 40.1118V36.6874C45.2544 36.4306 45.0832 36.2594 44.8264 36.2594ZM42.6862 37.1155H44.3983V37.9716H42.6862V37.1155ZM42.6862 39.6837V38.8276H44.3983V39.6837H42.6862ZM44.8264 30.2668H42.2581C42.0013 30.2668 41.8301 30.4381 41.8301 30.6949V34.1192C41.8301 34.376 42.0013 34.5472 42.2581 34.5472H44.8264C45.0832 34.5472 45.2544 34.376 45.2544 34.1192V30.6949C45.2544 30.4381 45.0832 30.2668 44.8264 30.2668ZM42.6862 31.1229H44.3983V31.979H42.6862V31.1229ZM42.6862 33.6912V32.8351H44.3983V33.6912H42.6862ZM51.675 36.2594H49.1068C48.8499 36.2594 48.6787 36.4306 48.6787 36.6874V40.1118C48.6787 40.3686 48.8499 40.5398 49.1068 40.5398H51.675C51.9318 40.5398 52.103 40.3686 52.103 40.1118V36.6874C52.103 36.4306 51.9318 36.2594 51.675 36.2594ZM51.247 39.6837H49.5348V37.1155H51.247V39.6837Z" fill="#BFBFBF"/>
</svg>
