<svg width="54" height="48" viewBox="0 0 54 48" fill="none" xmlns="http://www.w3.org/2000/svg">
<path d="M53.5362 47.0204H51.3948V26.449H52.6796C52.851 26.449 53.0223 26.351 53.1079 26.1551L53.9645 23.2163C54.0502 23.0204 53.9645 22.9224 53.8789 22.7265C53.7932 22.6286 53.7075 22.5306 53.5362 22.5306H51.3948V18.6122H51.8231C52.08 18.6122 52.2514 18.4163 52.2514 18.1224V15.1837C52.2514 14.8898 52.08 14.6939 51.8231 14.6939H39.4027V11.2653C39.4027 10.9714 39.2313 10.7755 38.9744 10.7755H38.5461V3.91837C38.5461 3.03673 38.0321 2.25306 37.2612 2.05714V0.489796C37.2612 0.195918 37.0899 0 36.8329 0C36.576 0 36.4046 0.195918 36.4046 0.489796V2.05714C35.6337 2.25306 35.1198 3.03673 35.1198 3.91837V7.83673H18.8448V3.91837C18.8448 3.03673 18.3308 2.25306 17.5599 2.05714V0.489796C17.5599 0.195918 17.3886 0 17.1316 0C16.8746 0 16.7033 0.195918 16.7033 0.489796V2.05714C15.9324 2.25306 15.4184 3.03673 15.4184 3.91837V10.7755H14.9901C14.7332 10.7755 14.5619 10.9714 14.5619 11.2653V14.6939H2.14145C1.88448 14.6939 1.71316 14.8898 1.71316 15.1837V18.1224C1.71316 18.4163 1.88448 18.6122 2.14145 18.6122H2.56974V22.5306H0.42829C0.256974 22.5306 0.171316 22.6286 0.0856583 22.7265C3.25483e-07 22.8245 0 23.0204 0 23.2163L0.85658 26.1551C0.942238 26.351 1.11355 26.449 1.28487 26.449H2.56974V47.0204H0.42829C0.171316 47.0204 0 47.2163 0 47.5102C0 47.8041 0.171316 48 0.42829 48H53.5362C53.7932 48 53.9645 47.8041 53.9645 47.5102C53.9645 47.2163 53.7932 47.0204 53.5362 47.0204ZM52.337 25.4694H39.4027V23.5102H52.9366L52.337 25.4694ZM19.7013 11.7551H34.2632V17.6327H19.7013V11.7551ZM38.5461 11.7551V17.6327H35.1198V11.7551H38.5461ZM23.9842 18.6122V22.5306H22.2711V18.6122H23.9842ZM24.8408 18.6122H26.554V22.5306H24.8408V18.6122ZM27.4105 18.6122H29.1237V22.5306H27.4105V18.6122ZM29.9803 18.6122H31.6934V22.5306H29.9803V18.6122ZM32.55 18.6122H34.2632V22.5306H32.55V18.6122ZM35.1198 22.5306V18.6122H38.5461V22.5306H35.1198ZM21.4145 18.6122V22.5306H19.7013V18.6122H21.4145ZM18.8448 22.5306H15.4184V18.6122H18.8448V22.5306ZM18.8448 23.5102V25.4694H15.4184V23.5102H18.8448ZM35.1198 23.5102H38.5461V25.4694H35.1198V23.5102ZM50.5382 22.5306H39.4027V18.6122H50.5382V22.5306ZM51.3948 15.6735V17.6327H39.4027V15.6735H51.3948ZM35.9763 10.7755V5.87755H37.6895V10.7755H35.9763ZM36.8329 2.93878C37.3469 2.93878 37.6895 3.33061 37.6895 3.91837V4.89796H35.9763V3.91837C35.9763 3.33061 36.319 2.93878 36.8329 2.93878ZM35.1198 8.81633V10.7755H18.8448V8.81633H35.1198ZM17.1316 2.93878C17.6455 2.93878 17.9882 3.33061 17.9882 3.91837V4.89796H16.275V3.91837C16.275 3.33061 16.6176 2.93878 17.1316 2.93878ZM16.275 5.87755H17.9882V10.7755H16.275V5.87755ZM15.8467 11.7551H18.8448V17.6327H15.4184V11.7551H15.8467ZM2.56974 15.6735H14.5619V17.6327H2.56974V15.6735ZM3.42632 18.6122H14.5619V22.5306H3.42632V18.6122ZM1.0279 23.5102H14.5619V25.4694H1.6275L1.0279 23.5102ZM3.42632 26.449H14.5619V47.0204H13.277V35.8531C13.277 33.2082 11.9921 30.8571 9.85067 29.6816C9.59369 29.4857 9.25106 29.4857 8.90843 29.6816C6.85264 30.8571 5.56777 33.2082 5.48211 35.8531V47.0204H3.34066V26.449H3.42632ZM7.28093 47.0204H6.42435V36.2449H12.4204V47.0204H11.5638V40.6531C11.5638 38.1061 9.67935 37.3224 9.59369 37.2245H9.33672C9.25106 37.2245 7.28093 38.1061 7.28093 40.6531V47.0204ZM6.42435 35.2653C6.59566 33.2082 7.62356 31.3469 9.33672 30.3673H9.50803C11.1355 31.3469 12.2491 33.1102 12.4204 35.2653H6.42435ZM8.13751 47.0204V40.6531C8.13751 39.1837 9.07974 38.498 9.42238 38.2041C9.85067 38.498 10.7072 39.1837 10.7072 40.6531V47.0204H8.13751ZM15.4184 47.0204V26.449H18.8448V47.0204H15.4184ZM21.4145 47.0204V36.3429C21.4145 33.4041 22.6994 30.6612 24.9265 29.0939L26.9823 27.5265L29.0381 28.9959C31.2652 30.5633 32.55 33.3061 32.55 36.3429V47.1184H21.4145V47.0204ZM29.4663 28.2122L27.1536 26.5469C26.9823 26.449 26.8109 26.449 26.7253 26.5469L24.4125 28.2122C22.0141 29.9755 20.5579 33.0122 20.5579 36.3429V47.0204H19.7013V23.5102H34.2632V47.0204H33.4066V36.2449C33.4066 33.0122 31.9504 29.9755 29.4663 28.2122ZM35.1198 47.0204V26.449H38.5461V47.0204H35.1198ZM41.5441 36.2449H47.5402V47.0204H46.6836V40.6531C46.6836 38.1061 44.7991 37.3224 44.7135 37.2245H44.4565C44.3708 37.2245 42.4007 38.1061 42.4007 40.6531V47.0204H41.5441V36.2449ZM41.5441 35.2653C41.7154 33.2082 42.7433 31.3469 44.4565 30.3673H44.6278C46.2553 31.3469 47.3689 33.1102 47.5402 35.2653H41.5441ZM43.2573 47.0204V40.6531C43.2573 39.1837 44.1995 38.498 44.5421 38.2041C44.9704 38.498 45.827 39.1837 45.827 40.6531V47.0204H43.2573ZM48.3968 47.0204V35.8531C48.3968 33.2082 47.1119 30.8571 44.9704 29.5837C44.7135 29.3878 44.3708 29.3878 44.0282 29.5837C41.9724 30.7592 40.6019 33.2082 40.6019 35.8531V47.0204H39.317V26.449H50.4525V47.0204H48.3968Z" fill="#BFBFBF"/>
</svg>
