<svg width="56" height="47" viewBox="0 0 56 47" fill="none" xmlns="http://www.w3.org/2000/svg">
<rect x="0.798958" y="18.5333" width="20.2667" height="27.7333" stroke="#BFBFBF" stroke-width="1.06667"/>
<rect x="34.9318" y="18.5333" width="20.2667" height="27.7333" stroke="#BFBFBF" stroke-width="1.06667"/>
<line x1="1.33203" y1="23.8651" x2="20.532" y2="23.8651" stroke="#BFBFBF" stroke-width="1.06667"/>
<line x1="35.4648" y1="23.8651" x2="54.6648" y2="23.8651" stroke="#BFBFBF" stroke-width="1.06667"/>
<line x1="5.06628" y1="24.0352" x2="5.06628" y2="18.0012" stroke="#BFBFBF" stroke-width="1.06667"/>
<line x1="39.1991" y1="24.0352" x2="39.1991" y2="18.0012" stroke="#BFBFBF" stroke-width="1.06667"/>
<line x1="33.8651" y1="12.668" x2="33.8651" y2="4.13463" stroke="#BFBFBF" stroke-width="1.06667"/>
<line x1="38.666" y1="14.2674" x2="53.5993" y2="14.2674" stroke="#BFBFBF" stroke-width="1.06667"/>
<line x1="23.1991" y1="12.668" x2="23.1991" y2="4.13463" stroke="#BFBFBF" stroke-width="1.06667"/>
<line x1="9.3319" y1="24.0352" x2="9.3319" y2="18.0012" stroke="#BFBFBF" stroke-width="1.06667"/>
<line x1="43.4647" y1="24.0352" x2="43.4647" y2="18.0012" stroke="#BFBFBF" stroke-width="1.06667"/>
<line x1="13.5995" y1="24.0352" x2="13.5995" y2="18.0012" stroke="#BFBFBF" stroke-width="1.06667"/>
<line x1="47.7323" y1="24.0352" x2="47.7323" y2="18.0012" stroke="#BFBFBF" stroke-width="1.06667"/>
<line x1="17.8651" y1="24.0352" x2="17.8651" y2="18.0012" stroke="#BFBFBF" stroke-width="1.06667"/>
<line x1="51.9999" y1="24.0352" x2="51.9999" y2="18.0012" stroke="#BFBFBF" stroke-width="1.06667"/>
<line x1="53.0663" y1="19.0664" x2="53.0663" y2="13.7331" stroke="#BFBFBF" stroke-width="1.06667"/>
<line x1="18.3984" y1="14.2677" x2="3.4651" y2="14.2677" stroke="#BFBFBF" stroke-width="1.06667"/>
<line y1="-0.533333" x2="5.33333" y2="-0.533333" transform="matrix(-4.37114e-08 -1 -1 4.37114e-08 3.46484 19.0664)" stroke="#BFBFBF" stroke-width="1.06667"/>
<line x1="7.19909" y1="34" x2="7.19909" y2="26.5333" stroke="#BFBFBF" stroke-width="1.06667"/>
<line x1="40.2655" y1="34" x2="40.2655" y2="26.5333" stroke="#BFBFBF" stroke-width="1.06667"/>
<line x1="19.4648" y1="46.2674" x2="37.5982" y2="46.2674" stroke="#BFBFBF" stroke-width="1.06667"/>
<line x1="11.4647" y1="34" x2="11.4647" y2="26.5333" stroke="#BFBFBF" stroke-width="1.06667"/>
<line x1="45.5995" y1="34" x2="45.5995" y2="26.5333" stroke="#BFBFBF" stroke-width="1.06667"/>
<line x1="16.7987" y1="34" x2="16.7987" y2="26.5333" stroke="#BFBFBF" stroke-width="1.06667"/>
<line x1="50.9315" y1="34" x2="50.9315" y2="26.5333" stroke="#BFBFBF" stroke-width="1.06667"/>
<path d="M24.2658 29.1984C24.2658 26.842 26.176 24.9318 28.5324 24.9318C30.8888 24.9318 32.7991 26.842 32.7991 29.1984V46.2651H24.2658V29.1984Z" stroke="#BFBFBF" stroke-width="1.06667"/>
<line x1="21.5996" y1="19.5995" x2="35.4663" y2="19.5995" stroke="#BFBFBF" stroke-width="1.06667"/>
<line x1="17.332" y1="15.3339" x2="39.732" y2="15.3339" stroke="#BFBFBF" stroke-width="1.06667"/>
<line x1="17.332" y1="12.1346" x2="39.732" y2="12.1346" stroke="#BFBFBF" stroke-width="1.06667"/>
<line x1="17.8651" y1="19.0664" x2="17.8651" y2="4.13307" stroke="#BFBFBF" stroke-width="1.06667"/>
<line x1="39.1991" y1="20.1328" x2="39.1991" y2="5.19948" stroke="#BFBFBF" stroke-width="1.06667"/>
<rect x="14.6661" y="1.46693" width="26.6667" height="3.2" stroke="#BFBFBF" stroke-width="1.06667"/>
</svg>
